<?xml version="1.0" encoding="UTF-8" standalone="no"?>
<!-- Created with Inkscape (http://www.inkscape.org/) -->
<svg
   xmlns:dc="http://purl.org/dc/elements/1.1/"
   xmlns:cc="http://creativecommons.org/ns#"
   xmlns:rdf="http://www.w3.org/1999/02/22-rdf-syntax-ns#"
   xmlns:svg="http://www.w3.org/2000/svg"
   xmlns="http://www.w3.org/2000/svg"
   xmlns:sodipodi="http://sodipodi.sourceforge.net/DTD/sodipodi-0.dtd"
   xmlns:inkscape="http://www.inkscape.org/namespaces/inkscape"
   id="svg3919"
   sodipodi:version="0.32"
   inkscape:version="0.46"
   width="500"
   height="292"
   version="1.0"
   sodipodi:docname="kochn2.svg"
   inkscape:output_extension="org.inkscape.output.svg.inkscape">
  <metadata
     id="metadata3924">
    <rdf:RDF>
      <cc:Work
         rdf:about="">
        <dc:format>image/svg+xml</dc:format>
        <dc:type
           rdf:resource="http://purl.org/dc/dcmitype/StillImage" />
      </cc:Work>
    </rdf:RDF>
  </metadata>
  <defs
     id="defs3922">
    <inkscape:perspective
       sodipodi:type="inkscape:persp3d"
       inkscape:vp_x="0 : 526.18109 : 1"
       inkscape:vp_y="0 : 1000 : 0"
       inkscape:vp_z="744.09448 : 526.18109 : 1"
       inkscape:persp3d-origin="372.04724 : 350.78739 : 1"
       id="perspective3926" />
  </defs>
  <sodipodi:namedview
     inkscape:window-height="750"
     inkscape:window-width="1280"
     inkscape:pageshadow="2"
     inkscape:pageopacity="0.0"
     guidetolerance="10.0"
     gridtolerance="10.0"
     objecttolerance="10.0"
     borderopacity="1.0"
     bordercolor="#666666"
     pagecolor="#ffffff"
     id="base"
     showgrid="false"
     inkscape:zoom="1.088"
     inkscape:cx="250"
     inkscape:cy="85"
     inkscape:window-x="-8"
     inkscape:window-y="-8"
     inkscape:current-layer="svg3919" />
  <path
     style="fill:#000000;stroke:#000000;stroke-width:1;stroke-opacity:1"
     d="M 236.39122,24.46808 L 222.5,48.436166 L 194.24112,48.718083 L 165.98225,49 L 179.92007,72.935066 L 193.85789,96.87013 L 192.17894,100.02331 C 191.25553,101.75755 185.1,112.46562 178.5,123.819 L 166.5,144.46152 L 139,144.46076 L 111.5,144.46 L 97.60878,120.48 C 89.968609,107.291 83.5971,96.5 83.44987,96.5 C 83.302641,96.5 76.95369,107.28694 69.341091,120.47097 L 55.5,144.44194 L 27.5,144.73718 L -0.5,145.03242 L 27.658909,145.26621 L 55.817819,145.5 L 69.62852,121.63686 L 83.439221,97.77373 L 97.326184,121.63686 L 111.21315,145.5 L 138.99412,145.5 L 166.77509,145.5 L 180.55421,121.85264 C 188.13273,108.84659 194.33333,97.68685 194.33333,97.05323 C 194.33333,96.4196 188.60511,86.09917 181.60395,74.118931 C 174.60278,62.138691 168.62964,51.698425 168.33029,50.918339 L 167.78602,49.5 L 195.28644,49.5 L 222.78685,49.5 L 236.66506,25.65191 L 250.54326,1.80383 L 263.89787,25.65191 L 277.25248,49.5 L 304.73323,49.5 L 332.21398,49.5 L 331.66971,50.918339 C 331.37036,51.698425 325.39722,62.138691 318.39605,74.118931 C 311.39489,86.09917 305.66667,96.4196 305.66667,97.05323 C 305.66667,97.68685 311.86727,108.84659 319.44579,121.85264 L 333.22491,145.5 L 360.97123,145.5 L 388.71756,145.5 L 402.58265,121.64418 L 416.44773,97.78835 L 430.33044,121.64418 L 444.21315,145.5 L 472.35657,145.26621 L 500.5,145.03242 L 472.5,144.73411 L 444.5,144.43581 L 430.60878,120.4679 C 422.96861,107.28556 416.6024,96.5 416.46165,96.5 C 416.3209,96.5 409.97195,107.28399 402.35287,120.46442 L 388.5,144.42883 L 361,144.44518 L 333.5,144.46152 L 321.5,123.819 C 314.9,112.46562 308.74447,101.75755 307.82106,100.02331 L 306.14211,96.87013 L 320.07993,72.935066 L 334.01775,49 L 305.75888,48.704517 L 277.5,48.409034 L 264.15248,24.45452 C 256.81135,11.27953 250.6874,0.5 250.5437,0.5 C 250.40001,0.5 244.03139,11.28564 236.39122,24.46808 z"
     id="path3930" />
</svg>
