<?xml version="1.0" encoding="UTF-8" standalone="no"?>
<!-- Created with Inkscape (http://www.inkscape.org/) -->
<svg
   xmlns:dc="http://purl.org/dc/elements/1.1/"
   xmlns:cc="http://creativecommons.org/ns#"
   xmlns:rdf="http://www.w3.org/1999/02/22-rdf-syntax-ns#"
   xmlns:svg="http://www.w3.org/2000/svg"
   xmlns="http://www.w3.org/2000/svg"
   xmlns:sodipodi="http://sodipodi.sourceforge.net/DTD/sodipodi-0.dtd"
   xmlns:inkscape="http://www.inkscape.org/namespaces/inkscape"
   id="svg4608"
   sodipodi:version="0.32"
   inkscape:version="0.46"
   width="500"
   height="292"
   version="1.0"
   sodipodi:docname="kochn4.svg"
   inkscape:output_extension="org.inkscape.output.svg.inkscape">
  <metadata
     id="metadata4613">
    <rdf:RDF>
      <cc:Work
         rdf:about="">
        <dc:format>image/svg+xml</dc:format>
        <dc:type
           rdf:resource="http://purl.org/dc/dcmitype/StillImage" />
      </cc:Work>
    </rdf:RDF>
  </metadata>
  <defs
     id="defs4611">
    <inkscape:perspective
       sodipodi:type="inkscape:persp3d"
       inkscape:vp_x="0 : 526.18109 : 1"
       inkscape:vp_y="0 : 1000 : 0"
       inkscape:vp_z="744.09448 : 526.18109 : 1"
       inkscape:persp3d-origin="372.04724 : 350.78739 : 1"
       id="perspective4615" />
  </defs>
  <sodipodi:namedview
     inkscape:window-height="750"
     inkscape:window-width="1276"
     inkscape:pageshadow="2"
     inkscape:pageopacity="0.0"
     guidetolerance="10.0"
     gridtolerance="10.0"
     objecttolerance="10.0"
     borderopacity="1.0"
     bordercolor="#666666"
     pagecolor="#ffffff"
     id="base"
     showgrid="false"
     inkscape:zoom="1.088"
     inkscape:cx="250"
     inkscape:cy="85"
     inkscape:window-x="0"
     inkscape:window-y="14"
     inkscape:current-layer="svg4608" />
  <path
     style="fill:#000000;stroke:#000000;stroke-opacity:1"
     d="M 248.34093,4 L 246.56878,7 L 243.25246,7 L 239.93613,7 L 241.35331,9.7048 L 242.7705,12.40959 L 241.72473,14.7048 L 240.67897,17 L 237.33948,17 L 234,17 L 234,16.19113 C 234,15.74625 233.36456,14.51325 232.58792,13.45112 L 231.17583,11.51998 L 229.9274,14.25999 L 228.67897,17 L 225.3138,17 L 221.94864,17 L 223.5,20 L 225.05136,23 L 223.5,26 L 221.94864,29 L 225.3138,29 L 228.67897,29 L 229.81805,31.5 L 230.95712,34 L 229.81805,36.5 L 228.67897,39 L 225.30755,39 L 221.93613,39 L 223.35331,41.7048 L 224.7705,44.40959 L 223.72473,46.704797 L 222.67897,49 L 219.62705,49 L 216.57513,49 L 214.38102,46.25 L 212.18691,43.5 L 210.93294,46.25 L 209.67897,49 L 206.5,49 L 203.32103,49 L 202.27527,46.704797 L 201.2295,44.40959 L 202.64669,41.7048 L 204.06387,39 L 201.05762,39 L 198.05136,39 L 196.37735,35.76283 L 194.70335,32.52565 L 193.17025,35.76283 L 191.63715,39 L 188.28664,39 L 184.93613,39 L 186.35331,41.7048 L 187.7705,44.40959 L 186.72473,46.704797 L 185.67897,49 L 182.62705,49 L 179.57513,49 L 177.38102,46.25 L 175.18691,43.5 L 173.93294,46.25 L 172.67897,49 L 169.3138,49 L 165.94864,49 L 167.5,52 L 169.05136,55 L 167.5,58 L 165.94864,61 L 169.3138,61 L 172.67897,61 L 173.81805,63.5 L 174.95712,66 L 173.81805,68.5 L 172.67897,71 L 169.3138,71 L 165.94864,71 L 167.37695,73.762039 L 168.80525,76.52408 L 167.37069,79.26204 L 165.93613,82 L 169.28664,82 L 172.63715,82 L 174.14875,85.19178 L 175.66035,88.38356 L 177.54578,85.19178 L 179.43122,82 L 182.55509,82 L 185.67897,82 L 186.84012,84.54844 L 188.00126,87.09688 L 186.47495,90.04844 L 184.94864,93 L 188.3138,93 L 191.67897,93 L 192.81805,95.5 L 193.95712,98 L 192.81805,100.5 L 191.67897,103 L 188.30755,103 L 184.93613,103 L 186.35331,105.7048 L 187.7705,108.40959 L 186.72473,110.7048 L 185.67897,113 L 182.62705,113 L 179.57513,113 L 177.38102,110.25 L 175.18691,107.5 L 173.93294,110.25 L 172.67897,113 L 169.3138,113 L 165.94864,113 L 167.5,116 L 169.05136,119 L 167.5,122 L 165.94864,125 L 169.3138,125 L 172.67897,125 L 173.81805,127.5 L 174.95712,130 L 173.81805,132.5 L 172.67897,135 L 169.30755,135 L 165.93613,135 L 167.35331,137.7048 L 168.7705,140.40959 L 167.72473,142.7048 L 166.67897,145 L 163.33948,145 L 160,145 L 160,144.19113 C 160,143.74625 159.36456,142.51325 158.58792,141.45112 L 157.17583,139.51998 L 155.9274,142.25999 L 154.67897,145 L 151.5,145 L 148.32103,145 L 147.27527,142.7048 L 146.2295,140.40959 L 147.64669,137.7048 L 149.06387,135 L 145.55762,135 L 142.05136,135 L 140.37735,131.76283 L 138.70335,128.52565 L 137.17025,131.76283 L 135.63715,135 L 132.28664,135 L 128.93613,135 L 130.35331,137.7048 L 131.7705,140.40959 L 130.72473,142.7048 L 129.67897,145 L 126.33948,145 L 123,145 L 123,144.19113 C 123,143.74625 122.36456,142.51325 121.58792,141.45112 L 120.17583,139.51998 L 118.9274,142.25999 L 117.67897,145 L 114.5,145 L 111.32103,145 L 110.27527,142.7048 L 109.2295,140.40959 L 110.64669,137.7048 L 112.06387,135 L 108.56387,135 L 105.06387,135 L 103.64669,132.2952 L 102.2295,129.59041 L 103.27527,127.2952 L 104.32103,125 L 108.1862,125 L 112.05136,125 L 110.61818,122.22854 L 109.18501,119.45709 L 110.55707,116.97854 C 111.3117,115.61534 111.94508,114.1625 111.96456,113.75 L 112,113 L 108.16052,113 L 104.32103,113 L 103.0726,110.25999 L 101.82417,107.51998 L 100.41208,109.45112 C 99.635437,110.51325 99,111.74625 99,112.19113 L 99,113 L 95.660515,113 L 92.32103,113 L 91.275266,110.7048 L 90.229501,108.40959 L 91.646688,105.7048 L 93.063875,103 L 90.057617,103 L 87.05136,103 L 85.377353,99.76283 L 83.703345,96.52565 L 82.170246,99.76283 L 80.637147,103 L 77.286636,103 L 73.936125,103 L 75.353312,105.7048 L 76.770499,108.40959 L 75.724734,110.7048 L 74.67897,113 L 71,113 L 67.32103,113 L 66.072598,110.25999 L 64.824166,107.51998 L 63.412083,109.45112 C 62.635437,110.51325 62,111.74625 62,112.19113 L 62,113 L 58.47432,113 L 54.94864,113 L 56.5,116 L 58.05136,119 L 56.5,122 L 54.94864,125 L 58.313805,125 L 61.67897,125 L 62.818046,127.5 L 63.957122,130 L 62.818046,132.5 L 61.67897,135 L 58.307548,135 L 54.936125,135 L 56.353312,137.7048 L 57.770499,140.40959 L 56.724734,142.7048 L 55.67897,145 L 52.5,145 L 49.32103,145 L 48.072598,142.25999 L 46.824166,139.51998 L 45.412083,141.45112 C 44.635437,142.51325 44,143.74625 44,144.19113 L 44,145 L 40.61501,145 L 37.23002,145 L 35.727075,142.70622 L 34.22413,140.41243 L 36.195472,137.70622 L 38.166813,135 L 34.609087,135 L 31.05136,135 L 29.377353,131.76283 L 27.703345,128.52565 L 26.170246,131.76283 L 24.637147,135 L 21.286636,135 L 17.936125,135 L 19.353312,137.7048 L 20.770499,140.40959 L 19.724734,142.7048 L 18.67897,145 L 15.5,145 L 12.32103,145 L 11.072598,142.25999 L 9.8241665,139.51998 L 8.4120832,141.45112 C 7.6354375,142.51325 7,143.71909 7,144.13076 L 7,144.87927 L 3.25,145.27153 L -0.5,145.66379 L 3.2180627,145.8319 L 6.9361255,146 L 8.2789239,143.43718 L 9.6217223,140.87436 L 10.789422,143.43718 L 11.957122,146 L 15.452881,146 L 18.94864,146 L 20.401299,143.19087 L 21.853958,140.38173 L 20.942292,138.94087 C 20.440875,138.14839 20.023735,137.1625 20.015313,136.75 L 20,136 L 22.468063,136 L 24.936125,136 L 26.376246,133.25143 L 27.816367,130.50286 L 29.068698,133.25143 L 30.32103,136 L 33.275525,136 L 36.23002,136 L 34.727075,138.29378 L 33.22413,140.58757 L 35.195472,143.29378 L 37.166813,146 L 40.604845,146 L 44.042878,146 L 45.210578,143.43718 L 46.378278,140.87436 L 47.721076,143.43718 L 49.063875,146 L 52.506257,146 L 55.94864,146 L 57.401299,143.19087 L 58.853958,140.38173 L 57.942292,138.94087 C 57.440875,138.14839 57.023735,137.1625 57.015313,136.75 L 57,136 L 59.47432,136 L 61.94864,136 L 63.5,133 L 65.05136,130 L 63.5,127 L 61.94864,124 L 59.367331,124 L 56.786022,124 L 57.537563,122.25 C 58.491331,120.0291 58.491331,117.9709 57.537563,115.75 L 56.786022,114 L 59.41445,114 L 62.042878,114 L 63.210578,111.43718 L 64.378278,108.87436 L 65.721076,111.43718 L 67.063875,114 L 71.006257,114 L 74.94864,114 L 76.401299,111.19087 L 77.853958,108.38173 L 76.942292,106.94087 C 76.440875,106.14839 76.023735,105.1625 76.015313,104.75 L 76,104 L 78.468063,104 L 80.936125,104 L 82.376246,101.25143 L 83.816367,98.50286 L 85.068698,101.25143 L 86.32103,104 L 88.660515,104 L 91,104 L 90.984687,104.75 C 90.976265,105.1625 90.559125,106.14839 90.057708,106.94087 L 89.146042,108.38173 L 90.598701,111.19087 L 92.05136,114 L 95.493743,114 L 98.936125,114 L 100.27892,111.43718 L 101.62172,108.87436 L 102.78942,111.43718 L 103.95712,114 L 107.50424,114 L 111.05136,114 L 109.5987,116.80913 L 108.14604,119.61827 L 109.05771,121.05913 C 109.55912,121.85161 109.97627,122.8375 109.98469,123.25 L 110,124 L 107.03194,124 L 104.06387,124 L 102.64621,126.70571 L 101.22855,129.41142 L 102.79949,132.70571 L 104.37042,136 L 107.18521,136 L 110,136 L 109.98469,136.75 C 109.97627,137.1625 109.55912,138.14839 109.05771,138.94087 L 108.14604,140.38173 L 109.5987,143.19087 L 111.05136,146 L 114.49374,146 L 117.93613,146 L 119.27892,143.43718 L 120.62172,140.87436 L 121.78942,143.43718 L 122.95712,146 L 126.45288,146 L 129.94864,146 L 131.4013,143.19087 L 132.85396,140.38173 L 131.94229,138.94087 C 131.44088,138.14839 131.02373,137.1625 131.01531,136.75 L 131,136 L 133.46806,136 L 135.93613,136 L 137.37625,133.25143 L 138.81637,130.50286 L 140.0687,133.25143 L 141.32103,136 L 144.16052,136 L 147,136 L 146.98469,136.75 C 146.97627,137.1625 146.55912,138.14839 146.05771,138.94087 L 145.14604,140.38173 L 146.5987,143.19087 L 148.05136,146 L 151.49374,146 L 154.93613,146 L 156.27892,143.43718 L 157.62172,140.87436 L 158.78942,143.43718 L 159.95712,146 L 163.45288,146 L 166.94864,146 L 168.4013,143.19087 L 169.85396,140.38173 L 168.94229,138.94087 C 168.44088,138.14839 168.02373,137.1625 168.01531,136.75 L 168,136 L 170.47432,136 L 172.94864,136 L 174.5,133 L 176.05136,130 L 174.5,127 L 172.94864,124 L 170.36733,124 L 167.78602,124 L 168.53756,122.25 C 169.49133,120.0291 169.49133,117.9709 168.53756,115.75 L 167.78602,114 L 170.36107,114 L 172.93613,114 L 174.29357,111.40922 L 175.65102,108.81844 L 177.34856,111.40922 L 179.04611,114 L 182.49737,114 L 185.94864,114 L 187.4013,111.19087 L 188.85396,108.38173 L 187.94229,106.94087 C 187.44088,106.14839 187.02373,105.1625 187.01531,104.75 L 187,104 L 189.47432,104 L 191.94864,104 L 193.5,101 L 195.05136,98 L 193.5,95 L 191.94864,92 L 189.47432,92 C 186.70477,92 186.55928,91.69201 188.03035,88.94329 L 189.0607,87.01806 L 187.50467,84.00903 L 185.94864,81 L 182.58933,81 L 179.23002,81 L 177.48138,83.66876 L 175.73274,86.33753 L 174.33443,83.66876 L 172.93613,81 L 170.36107,81 L 167.78602,81 L 168.51212,79.25 C 168.91147,78.2875 169.23822,77.05 169.23822,76.5 C 169.23822,75.95 168.91147,74.7125 168.51212,73.75 L 167.78602,72 L 170.36733,72 L 172.94864,72 L 174.5,69 L 176.05136,66 L 174.5,63 L 172.94864,60 L 170.36733,60 L 167.78602,60 L 168.53756,58.25 C 169.49133,56.029104 169.49133,53.970896 168.53756,51.75 L 167.78602,50 L 170.36107,50 L 172.93613,50 L 174.29357,47.409221 L 175.65102,44.81844 L 177.34856,47.409221 L 179.04611,50 L 182.49737,50 L 185.94864,50 L 187.4013,47.190867 L 188.85396,44.38173 L 187.94229,42.94087 C 187.44088,42.14839 187.02373,41.1625 187.01531,40.75 L 187,40 L 189.46806,40 L 191.93613,40 L 193.37625,37.25143 L 194.81637,34.50286 L 196.0687,37.25143 L 197.32103,40 L 199.66052,40 L 202,40 L 201.98469,40.75 C 201.97627,41.1625 201.55912,42.14839 201.05771,42.94087 L 200.14604,44.38173 L 201.5987,47.190867 L 203.05136,50 L 206.49374,50 L 209.93613,50 L 211.29357,47.409221 L 212.65102,44.81844 L 214.34856,47.409221 L 216.04611,50 L 219.49737,50 L 222.94864,50 L 224.4013,47.190867 L 225.85396,44.38173 L 224.94229,42.94087 C 224.44088,42.14839 224.02373,41.1625 224.01531,40.75 L 224,40 L 226.47432,40 L 228.94864,40 L 230.5,37 L 232.05136,34 L 230.5,31 L 228.94864,28 L 226.36733,28 L 223.78602,28 L 224.53756,26.25 C 225.49133,24.0291 225.49133,21.9709 224.53756,19.75 L 223.78602,18 L 226.36107,18 L 228.93613,18 L 230.27892,15.43718 L 231.62172,12.87436 L 232.78942,15.43718 L 233.95712,18 L 237.45288,18 L 240.94864,18 L 242.4013,15.19087 L 243.85396,12.38173 L 242.94229,10.94087 C 242.44088,10.14839 242.02373,9.1625 242.01531,8.75 L 242,8 L 244.4018,8 L 246.8036,8 L 248.74986,4.92609 L 250.69613,1.85217 L 251.96938,4.92609 L 253.24264,8 L 255.62132,8 L 258,8 L 257.98469,8.75 C 257.97627,9.1625 257.55912,10.14839 257.05771,10.94087 L 256.14604,12.38173 L 257.5987,15.19087 L 259.05136,18 L 262.49374,18 L 265.93613,18 L 267.27892,15.43718 L 268.62172,12.87436 L 269.78942,15.43718 L 270.95712,18 L 274.00424,18 L 277.05136,18 L 275.5987,20.80913 L 274.14604,23.61827 L 275.05771,25.05913 C 275.55912,25.85161 275.97627,26.8375 275.98469,27.25 L 276,28 L 273.53194,28 L 271.06387,28 L 269.64621,30.70571 L 268.22855,33.41142 L 269.79949,36.70571 L 271.37042,40 L 273.68521,40 L 276,40 L 275.98469,40.75 C 275.97627,41.1625 275.55912,42.14839 275.05771,42.94087 L 274.14604,44.38173 L 275.5987,47.190867 L 277.05136,50 L 280.50263,50 L 283.95389,50 L 285.65144,47.409221 L 287.34898,44.81844 L 288.70643,47.409221 L 290.06387,50 L 293.50626,50 L 296.94864,50 L 298.4013,47.190867 L 299.85396,44.38173 L 298.94229,42.94087 C 298.44088,42.14839 298.02373,41.1625 298.01531,40.75 L 298,40 L 300.46806,40 L 302.93613,40 L 304.37625,37.25143 L 305.81637,34.50286 L 307.0687,37.25143 L 308.32103,40 L 310.66052,40 L 313,40 L 312.98469,40.75 C 312.97627,41.1625 312.55912,42.14839 312.05771,42.94087 L 311.14604,44.38173 L 312.5987,47.190867 L 314.05136,50 L 317.50263,50 L 320.95389,50 L 322.65144,47.409221 L 324.34898,44.81844 L 325.70643,47.409221 L 327.06387,50 L 330.05762,50 L 333.05136,50 L 331.5987,52.809133 L 330.14604,55.618267 L 331.05771,57.059133 C 331.55912,57.85161 331.97627,58.8375 331.98469,59.25 L 332,60 L 329.53194,60 L 327.06387,60 L 325.64621,62.705708 L 324.22855,65.411415 L 325.79949,68.705708 L 327.37042,72 L 329.7922,72 L 332.21398,72 L 331.48788,73.75 C 331.08853,74.7125 330.76178,75.95 330.76178,76.5 C 330.76178,77.05 331.08853,78.2875 331.48788,79.25 L 332.21398,81 L 329.72831,81 L 327.24264,81 L 325.96938,84.07391 L 324.69613,87.14783 L 322.74986,84.07391 L 320.8036,81 L 317.58701,81 L 314.37042,81 L 312.77752,84.34035 L 311.18462,87.68069 L 312.077,89.09035 C 312.56781,89.86566 312.97627,90.8375 312.98469,91.25 L 313,92 L 310.53194,92 L 308.06387,92 L 306.64621,94.70571 L 305.22855,97.41142 L 306.79949,100.70571 L 308.37042,104 L 310.68521,104 L 313,104 L 312.98469,104.75 C 312.97627,105.1625 312.55912,106.14839 312.05771,106.94087 L 311.14604,108.38173 L 312.5987,111.19087 L 314.05136,114 L 317.50263,114 L 320.95389,114 L 322.65144,111.40922 L 324.34898,108.81844 L 325.70643,111.40922 L 327.06387,114 L 330.05762,114 L 333.05136,114 L 331.5987,116.80913 L 330.14604,119.61827 L 331.05771,121.05913 C 331.55912,121.85161 331.97627,122.8375 331.98469,123.25 L 332,124 L 329.53194,124 L 327.06387,124 L 325.64621,126.70571 L 324.22855,129.41142 L 325.79949,132.70571 L 327.37042,136 L 329.68521,136 L 332,136 L 331.98469,136.75 C 331.97627,137.1625 331.55912,138.14839 331.05771,138.94087 L 330.14604,140.38173 L 331.5987,143.19087 L 333.05136,146 L 336.49374,146 L 339.93613,146 L 341.27892,143.43718 L 342.62172,140.87436 L 343.78942,143.43718 L 344.95712,146 L 348.45288,146 L 351.94864,146 L 353.4013,143.19087 L 354.85396,140.38173 L 353.94229,138.94087 C 353.44088,138.14839 353.02373,137.1625 353.01531,136.75 L 353,136 L 355.96806,136 L 358.93613,136 L 360.37625,133.25143 L 361.81637,130.50286 L 363.0687,133.25143 L 364.32103,136 L 366.66052,136 L 369,136 L 368.98469,136.75 C 368.97627,137.1625 368.55912,138.14839 368.05771,138.94087 L 367.14604,140.38173 L 368.5987,143.19087 L 370.05136,146 L 373.49374,146 L 376.93613,146 L 378.27892,143.43718 L 379.62172,140.87436 L 380.78942,143.43718 L 381.95712,146 L 385.45288,146 L 388.94864,146 L 390.4013,143.19087 L 391.85396,140.38173 L 390.94229,138.94087 C 390.44088,138.14839 390.02373,137.1625 390.01531,136.75 L 390,136 L 392.97432,136 L 395.94864,136 L 397.5,133 L 399.05136,130 L 397.5,127 L 395.94864,124 L 392.86733,124 L 389.78602,124 L 390.53756,122.25 C 391.49133,120.0291 391.49133,117.9709 390.53756,115.75 L 389.78602,114 L 392.91445,114 L 396.04288,114 L 397.21058,111.43718 L 398.37828,108.87436 L 399.72108,111.43718 L 401.06387,114 L 404.50626,114 L 407.94864,114 L 409.4013,111.19087 L 410.85396,108.38173 L 409.94229,106.94087 C 409.44088,106.14839 409.02373,105.1625 409.01531,104.75 L 409,104 L 411.46806,104 L 413.93613,104 L 415.37625,101.25143 L 416.81637,98.50286 L 418.0687,101.25143 L 419.32103,104 L 421.66052,104 L 424,104 L 423.98469,104.75 C 423.97627,105.1625 423.55912,106.14839 423.05771,106.94087 L 422.14604,108.38173 L 423.5987,111.19087 L 425.05136,114 L 429.04712,114 L 433.04288,114 L 434.21058,111.43718 L 435.37828,108.87436 L 436.72108,111.43718 L 438.06387,114 L 441.05762,114 L 444.05136,114 L 442.5987,116.80913 L 441.14604,119.61827 L 442.05771,121.05913 C 442.55912,121.85161 442.97627,122.8375 442.98469,123.25 L 443,124 L 440.53194,124 L 438.06387,124 L 436.64621,126.70571 L 435.22855,129.41142 L 436.79949,132.70571 L 438.37042,136 L 440.68521,136 L 443,136 L 442.98469,136.75 C 442.97627,137.1625 442.55912,138.14839 442.05771,138.94087 L 441.14604,140.38173 L 442.5987,143.19087 L 444.05136,146 L 447.54712,146 L 451.04288,146 L 452.21058,143.43718 L 453.37828,140.87436 L 454.72108,143.43718 L 456.06387,146 L 459.44853,146 L 462.83319,146 L 464.80453,143.29378 L 466.77587,140.58757 L 465.27292,138.29378 L 463.76998,136 L 466.85305,136 L 469.93613,136 L 471.37625,133.25143 L 472.81637,130.50286 L 474.0687,133.25143 L 475.32103,136 L 477.66052,136 L 480,136 L 479.98469,136.75 C 479.97627,137.1625 479.55912,138.14839 479.05771,138.94087 L 478.14604,140.38173 L 479.5987,143.19087 L 481.05136,146 L 484.54712,146 L 488.04288,146 L 489.21058,143.43718 L 490.37828,140.87436 L 491.72108,143.43718 L 493.06387,146 L 496.78194,145.8319 L 500.5,145.66379 L 496.75,145.27153 L 493,144.87927 L 493,144.13076 C 493,143.71909 492.36456,142.51325 491.58792,141.45112 L 490.17583,139.51998 L 488.9274,142.25999 L 487.67897,145 L 484.5,145 L 481.32103,145 L 480.27527,142.7048 L 479.2295,140.40959 L 480.64669,137.7048 L 482.06387,135 L 479.05762,135 L 476.05136,135 L 474.37735,131.76283 L 472.70335,128.52565 L 471.17025,131.76283 L 469.63715,135 L 465.73517,135 L 461.83319,135 L 463.80453,137.70622 L 465.77587,140.41243 L 464.27292,142.70622 L 462.76998,145 L 459.38499,145 L 456,145 L 456,144.19113 C 456,143.74625 455.36456,142.51325 454.58792,141.45112 L 453.17583,139.51998 L 451.9274,142.25999 L 450.67897,145 L 447.5,145 L 444.32103,145 L 443.27527,142.7048 L 442.2295,140.40959 L 443.64669,137.7048 L 445.06387,135 L 442.06387,135 L 439.06387,135 L 437.64669,132.2952 L 436.2295,129.59041 L 437.27527,127.2952 L 438.32103,125 L 441.6862,125 L 445.05136,125 L 443.61818,122.22854 L 442.18501,119.45709 L 443.55707,116.97854 C 444.3117,115.61534 444.94508,114.1625 444.96456,113.75 L 445,113 L 441.5,113 L 438,113 L 438,112.19113 C 438,111.74625 437.36456,110.51325 436.58792,109.45112 L 435.17583,107.51998 L 433.9274,110.25999 L 432.67897,113 L 429,113 L 425.32103,113 L 424.27527,110.7048 L 423.2295,108.40959 L 424.64669,105.7048 L 426.06387,103 L 423.05762,103 L 420.05136,103 L 418.37735,99.76283 L 416.70335,96.52565 L 415.17025,99.76283 L 413.63715,103 L 410.28664,103 L 406.93613,103 L 408.35331,105.7048 L 409.7705,108.40959 L 408.72473,110.7048 L 407.67897,113 L 404.33948,113 L 401,113 L 401,112.19113 C 401,111.74625 400.36456,110.51325 399.58792,109.45112 L 398.17583,107.51998 L 396.9274,110.25999 L 395.67897,113 L 391.8138,113 L 387.94864,113 L 389.5,116 L 391.05136,119 L 389.5,122 L 387.94864,125 L 391.8138,125 L 395.67897,125 L 396.81805,127.5 L 397.95712,130 L 396.81805,132.5 L 395.67897,135 L 391.80755,135 L 387.93613,135 L 389.35331,137.7048 L 390.7705,140.40959 L 389.72473,142.7048 L 388.67897,145 L 385.33948,145 L 382,145 L 382,144.19113 C 382,143.74625 381.36456,142.51325 380.58792,141.45112 L 379.17583,139.51998 L 377.9274,142.25999 L 376.67897,145 L 373.5,145 L 370.32103,145 L 369.27527,142.7048 L 368.2295,140.40959 L 369.64669,137.7048 L 371.06387,135 L 368.05762,135 L 365.05136,135 L 363.37735,131.76283 L 361.70335,128.52565 L 360.17025,131.76283 L 358.63715,135 L 354.78664,135 L 350.93613,135 L 352.35331,137.7048 L 353.7705,140.40959 L 352.72473,142.7048 L 351.67897,145 L 348.33948,145 L 345,145 L 345,144.19113 C 345,143.74625 344.36456,142.51325 343.58792,141.45112 L 342.17583,139.51998 L 340.9274,142.25999 L 339.67897,145 L 336.5,145 L 333.32103,145 L 332.27527,142.7048 L 331.2295,140.40959 L 332.64669,137.7048 L 334.06387,135 L 331.06387,135 L 328.06387,135 L 326.64669,132.2952 L 325.2295,129.59041 L 326.27527,127.2952 L 327.32103,125 L 330.6862,125 L 334.05136,125 L 332.61818,122.22854 L 331.18501,119.45709 L 332.55707,116.97854 C 333.3117,115.61534 333.94508,114.1625 333.96456,113.75 L 334,113 L 330.66052,113 L 327.32103,113 L 326.06706,110.25 L 324.81309,107.5 L 322.61898,110.25 L 320.42487,113 L 317.37295,113 L 314.32103,113 L 313.27527,110.7048 L 312.2295,108.40959 L 313.64669,105.7048 L 315.06387,103 L 312.06387,103 L 309.06387,103 L 307.64669,100.2952 L 306.2295,97.59041 L 307.27527,95.2952 L 308.32103,93 L 311.69245,93 L 315.06387,93 L 313.62931,90.26204 L 312.19475,87.52408 L 313.62305,84.76204 L 315.05136,82 L 318.02568,82 L 321,82 L 321.02224,82.75 C 321.03447,83.1625 321.88264,84.59037 322.90707,85.92305 L 324.76967,88.3461 L 326.41051,85.17305 L 328.05136,82 L 331.05762,82 L 334.06387,82 L 332.62931,79.26204 L 331.19475,76.52408 L 332.62305,73.762039 L 334.05136,71 L 331.05762,71 L 328.06387,71 L 326.64669,68.295203 L 325.2295,65.590405 L 326.27527,63.295203 L 327.32103,61 L 330.6862,61 L 334.05136,61 L 332.61818,58.228543 L 331.18501,55.457085 L 332.55707,52.978543 C 333.3117,51.615344 333.94508,50.1625 333.96456,49.75 L 334,49 L 330.66052,49 L 327.32103,49 L 326.06706,46.25 L 324.81309,43.5 L 322.61898,46.25 L 320.42487,49 L 317.37295,49 L 314.32103,49 L 313.27527,46.704797 L 312.2295,44.40959 L 313.64669,41.7048 L 315.06387,39 L 312.05762,39 L 309.05136,39 L 307.37735,35.76283 L 305.70335,32.52565 L 304.17025,35.76283 L 302.63715,39 L 299.28664,39 L 295.93613,39 L 297.35331,41.7048 L 298.7705,44.40959 L 297.72473,46.704797 L 296.67897,49 L 293.5,49 L 290.32103,49 L 289.06706,46.25 L 287.81309,43.5 L 285.61898,46.25 L 283.42487,49 L 280.37295,49 L 277.32103,49 L 276.27527,46.704797 L 275.2295,44.40959 L 276.64669,41.7048 L 278.06387,39 L 275.06387,39 L 272.06387,39 L 270.64669,36.2952 L 269.2295,33.59041 L 270.27527,31.2952 L 271.32103,29 L 274.6862,29 L 278.05136,29 L 276.61818,26.22854 L 275.18501,23.45709 L 276.55707,20.97854 C 277.3117,19.61534 277.94508,18.1625 277.96456,17.75 L 278,17 L 274.5,17 L 271,17 L 271,16.19113 C 271,15.74625 270.36456,14.51325 269.58792,13.45112 L 268.17583,11.51998 L 266.9274,14.25999 L 265.67897,17 L 262.5,17 L 259.32103,17 L 258.27527,14.7048 L 257.2295,12.40959 L 258.64669,9.7048 L 260.06387,7 L 257.05762,7 L 254.05136,7 L 252.5,4 C 251.64675,2.35 250.76064,1 250.53086,1 C 250.30107,1 249.31561,2.35 248.34093,4 z"
     id="path4619" />
</svg>
