<?xml version="1.0" encoding="UTF-8" standalone="no"?>
<!-- Created with Inkscape (http://www.inkscape.org/) -->
<svg
   xmlns:dc="http://purl.org/dc/elements/1.1/"
   xmlns:cc="http://creativecommons.org/ns#"
   xmlns:rdf="http://www.w3.org/1999/02/22-rdf-syntax-ns#"
   xmlns:svg="http://www.w3.org/2000/svg"
   xmlns="http://www.w3.org/2000/svg"
   xmlns:sodipodi="http://sodipodi.sourceforge.net/DTD/sodipodi-0.dtd"
   xmlns:inkscape="http://www.inkscape.org/namespaces/inkscape"
   id="svg4518"
   sodipodi:version="0.32"
   inkscape:version="0.46"
   width="500"
   height="292"
   version="1.0"
   sodipodi:docname="kochn3.svg"
   inkscape:output_extension="org.inkscape.output.svg.inkscape">
  <metadata
     id="metadata4523">
    <rdf:RDF>
      <cc:Work
         rdf:about="">
        <dc:format>image/svg+xml</dc:format>
        <dc:type
           rdf:resource="http://purl.org/dc/dcmitype/StillImage" />
      </cc:Work>
    </rdf:RDF>
  </metadata>
  <defs
     id="defs4521">
    <inkscape:perspective
       sodipodi:type="inkscape:persp3d"
       inkscape:vp_x="0 : 526.18109 : 1"
       inkscape:vp_y="0 : 1000 : 0"
       inkscape:vp_z="744.09448 : 526.18109 : 1"
       inkscape:persp3d-origin="372.04724 : 350.78739 : 1"
       id="perspective4525" />
  </defs>
  <sodipodi:namedview
     inkscape:window-height="750"
     inkscape:window-width="1280"
     inkscape:pageshadow="2"
     inkscape:pageopacity="0.0"
     guidetolerance="10.0"
     gridtolerance="10.0"
     objecttolerance="10.0"
     borderopacity="1.0"
     bordercolor="#666666"
     pagecolor="#ffffff"
     id="base"
     showgrid="false"
     inkscape:zoom="1.088"
     inkscape:cx="250"
     inkscape:cy="85"
     inkscape:window-x="-8"
     inkscape:window-y="-8"
     inkscape:current-layer="svg4518" />
  <path
     style="fill:#000000;stroke:#000000;stroke-opacity:1"
     d="M 245.37623,9 L 240.5045,17 L 231.19347,17 L 221.88243,17 L 226.38644,25.22744 L 230.89045,33.45489 L 226.69523,41.22646 L 222.5,48.99803 L 213,48.984979 L 203.5,48.971928 L 199.2056,40.98596 C 196.84368,36.59368 194.73681,33 194.52367,33 C 194.31053,33 192.19301,36.59956 189.81807,40.99901 L 185.5,48.99803 L 175.69122,48.999015 L 165.88243,49 L 170.39234,57.238223 L 174.90226,65.476445 L 170.39876,73.738223 L 165.89526,82 L 175.69763,82.00099 L 185.5,82.00197 L 189.6889,89.76182 L 193.87779,97.52167 L 189.6889,105.25775 L 185.5,112.99383 L 175.69122,112.99691 L 165.88243,113 L 170.38644,121.22744 L 174.89045,129.45489 L 170.69523,137.22646 L 166.5,144.99803 L 157.5,144.98154 L 148.5,144.96506 L 144.78124,138.71639 C 142.73593,135.27962 140.4414,131.61833 139.68231,130.58021 L 138.30213,128.6927 L 133.90106,136.84536 L 129.5,144.99803 L 120.5,144.99131 L 111.5,144.9846 L 109.29649,141.2423 C 108.08455,139.18403 105.97982,135.68521 104.61929,133.46714 L 102.14561,129.43427 L 107.08533,121.46713 L 112.02504,113.5 L 102.26252,113.2097 L 92.5,112.9194 L 88.205598,104.9597 C 85.843676,100.58187 83.736809,97 83.523671,97 C 83.310533,97 81.193014,100.59956 78.818074,104.99901 L 74.5,112.99803 L 64.691217,112.99901 L 54.882433,113 L 59.386444,121.22744 L 63.890454,129.45489 L 59.695227,137.22646 L 55.5,144.99803 L 46.5,144.98154 L 37.5,144.96506 L 33.781242,138.71639 C 31.735926,135.27962 29.441404,131.61833 28.682306,130.58021 L 27.302127,128.6927 L 22.916204,136.81297 L 18.530281,144.93324 L 9.0151407,145.25733 L -0.5,145.58142 L 9.1912166,145.79071 L 18.882433,146 L 23.229522,138.0592 L 27.576611,130.11841 L 32.412287,138.0592 L 37.247963,146 L 46.565198,146 L 55.882433,146 L 60.396597,137.75401 L 64.91076,129.50802 L 60.95538,122.30112 C 58.779921,118.33732 57,114.84801 57,114.5471 L 57,114 L 65.941217,114 L 74.882433,114 L 79.224883,106.06768 L 83.567333,98.13536 L 87.85174,106.06768 L 92.136147,114 L 101.06807,114 L 110,114 L 109.97399,114.75 C 109.95968,115.1625 107.95162,118.64234 105.51163,122.48298 L 101.07528,129.46595 L 102.35883,131.48298 C 103.06478,132.59234 105.3618,136.3125 107.46332,139.75 L 111.28427,146 L 120.58335,146 L 129.88243,146 L 134.22952,138.0592 L 138.57661,130.11841 L 143.41229,138.0592 L 148.24796,146 L 157.5652,146 L 166.88243,146 L 171.3966,137.75401 L 175.91076,129.50802 L 171.95538,122.30112 C 169.77992,118.33732 168,114.84801 168,114.5471 L 168,114 L 176.94122,114 L 185.88243,114 L 190.39425,105.7583 L 194.90606,97.5166 L 190.53153,89.5083 L 186.15701,81.5 L 177.0785,81.21247 L 168,80.92495 L 168.04238,80.21247 C 168.0657,79.82061 169.84904,76.35803 172.00536,72.517852 L 175.92595,65.535703 L 171.96298,58.314956 C 169.78334,54.343545 168,50.848011 168,50.547104 L 168,50 L 176.94122,50 L 185.88243,50 L 190.22488,42.06768 L 194.56733,34.13536 L 198.85174,42.06768 L 203.13615,50 L 213.00929,50 L 222.88243,50 L 227.3966,41.75401 L 231.91076,33.50802 L 227.95538,26.30111 C 225.77992,22.33732 224,18.84801 224,18.5471 L 224,18 L 232.41213,18 L 240.82425,18 L 245.70648,10.08746 L 250.5887,2.17492 L 254.86242,10.08746 L 259.13615,18 L 267.56807,18 L 276,18 L 276,18.62689 C 276,18.97168 274.23231,22.45918 272.0718,26.37689 L 268.1436,33.5 L 272.65695,41.75 L 277.17029,50 L 287.02636,50 L 296.88243,50 L 301.22488,42.06768 L 305.56733,34.13536 L 309.85174,42.06768 L 314.13615,50 L 323.06807,50 L 332,50 L 331.97929,50.75 C 331.9679,51.1625 330.19398,54.64185 328.03725,58.481889 L 324.11592,65.463779 L 328.05796,72.604998 C 330.22608,76.53267 332,80.02832 332,80.37311 L 332,81 L 323.08515,81 L 314.17029,81 L 309.662,89.24776 L 305.1537,97.49552 L 309.53154,105.49776 L 313.90938,113.5 L 322.95469,113.78753 L 332,114.07505 L 332,114.66442 C 332,114.98857 330.23231,118.45918 328.0718,122.37689 L 324.1436,129.5 L 328.65695,137.75 L 333.17029,146 L 342.49727,146 L 351.82425,146 L 356.70648,138.08746 L 361.5887,130.17492 L 365.86242,138.08746 L 370.13615,146 L 379.46457,146 L 388.79299,146 L 393.24719,138.75 C 395.697,134.7625 397.97563,131.00952 398.31081,130.41004 L 398.92022,129.32007 L 394.46011,122.15314 C 392.00705,118.21133 390,114.76431 390,114.49311 C 390,114.2219 394.02355,114 398.94122,114 L 407.88243,114 L 412.22488,106.06768 L 416.56733,98.13536 L 420.85174,106.06768 L 425.13615,114 L 434.06807,114 L 443,114 L 443,114.62689 C 443,114.97168 441.23231,118.45918 439.0718,122.37689 L 435.1436,129.5 L 439.65695,137.75 L 444.17029,146 L 453.49727,146 L 462.82425,146 L 467.70648,138.08746 L 472.5887,130.17492 L 476.86242,138.08746 L 481.13615,146 L 490.81807,145.79071 L 500.5,145.58142 L 491,145.24962 L 481.5,144.91782 L 477.2056,136.95891 C 474.84368,132.58151 472.76197,129 472.57958,129 C 472.39719,129 470.05568,132.6 467.37623,137 L 462.5045,145 L 453.50225,144.98596 L 444.5,144.97193 L 440.33339,137.22177 L 436.16678,129.4716 L 440.66853,121.2358 L 445.17029,113 L 435.33515,112.98596 L 425.5,112.97193 L 421.2056,104.98596 C 418.84368,100.59368 416.73681,97 416.52367,97 C 416.31053,97 414.19959,100.58543 411.83268,104.96762 L 407.52921,112.93523 L 397.81437,113.21762 L 388.09953,113.5 L 393.02961,121.45157 L 397.95969,129.40314 L 396.13382,132.45157 C 395.12959,134.12821 393.00444,137.6375 391.41126,140.25 L 388.51456,145 L 379.50728,144.98596 L 370.5,144.97193 L 366.2056,136.98596 C 363.84368,132.59368 361.76197,129 361.57958,129 C 361.39719,129 359.05568,132.6 356.37623,137 L 351.5045,145 L 342.50225,144.98596 L 333.5,144.97193 L 329.33339,137.22177 L 325.16678,129.4716 L 329.66853,121.2358 L 334.17029,113 L 324.33515,112.98596 L 314.5,112.97193 L 310.33728,105.22895 L 306.17456,97.48597 L 310.33728,89.75841 L 314.5,82.03085 L 324.33515,82.01543 L 334.17029,82 L 329.66492,73.757583 L 325.15954,65.515165 L 329.66075,57.257583 L 334.16197,49 L 324.33098,48.985964 L 314.5,48.971928 L 310.2056,40.98596 C 307.84368,36.59368 305.73681,33 305.52367,33 C 305.31053,33 303.19301,36.59956 300.81807,40.99901 L 296.5,48.99803 L 287,48.984979 L 277.5,48.971928 L 273.33339,41.22177 L 269.16678,33.4716 L 273.66853,25.2358 L 278.17029,17 L 268.83515,16.98596 L 259.5,16.97193 L 255.2056,8.98596 C 252.84368,4.59368 250.76197,1 250.57958,1 C 250.39719,1 248.05568,4.6 245.37623,9 z"
     id="path4529" />
</svg>
