<?xml version="1.0" encoding="UTF-8" standalone="no"?>
<!-- Created with Inkscape (http://www.inkscape.org/) -->
<svg
   xmlns:dc="http://purl.org/dc/elements/1.1/"
   xmlns:cc="http://creativecommons.org/ns#"
   xmlns:rdf="http://www.w3.org/1999/02/22-rdf-syntax-ns#"
   xmlns:svg="http://www.w3.org/2000/svg"
   xmlns="http://www.w3.org/2000/svg"
   xmlns:sodipodi="http://sodipodi.sourceforge.net/DTD/sodipodi-0.dtd"
   xmlns:inkscape="http://www.inkscape.org/namespaces/inkscape"
   id="svg2479"
   sodipodi:version="0.32"
   inkscape:version="0.46"
   width="640"
   height="480"
   version="1.0"
   sodipodi:docname="Outline.svg"
   inkscape:output_extension="org.inkscape.output.svg.inkscape">
  <metadata
     id="metadata2484">
    <rdf:RDF>
      <cc:Work
         rdf:about="">
        <dc:format>image/svg+xml</dc:format>
        <dc:type
           rdf:resource="http://purl.org/dc/dcmitype/StillImage" />
      </cc:Work>
    </rdf:RDF>
  </metadata>
  <defs
     id="defs2482">
    <marker
       inkscape:stockid="Arrow2Lstart"
       orient="auto"
       refY="0"
       refX="0"
       id="Arrow2Lstart"
       style="overflow:visible">
      <path
         id="path3287"
         style="font-size:12px;fill-rule:evenodd;stroke-width:0.625;stroke-linejoin:round"
         d="M 8.7185878,4.0337352 L -2.2072895,0.016013256 L 8.7185884,-4.0017078 C 6.97309,-1.6296469 6.9831476,1.6157441 8.7185878,4.0337352 z"
         transform="matrix(1.1,0,0,1.1,1.1,0)" />
    </marker>
    <marker
       inkscape:stockid="Arrow2Lend"
       orient="auto"
       refY="0"
       refX="0"
       id="Arrow2Lend"
       style="overflow:visible">
      <path
         id="path3290"
         style="font-size:12px;fill-rule:evenodd;stroke-width:0.625;stroke-linejoin:round"
         d="M 8.7185878,4.0337352 L -2.2072895,0.016013256 L 8.7185884,-4.0017078 C 6.97309,-1.6296469 6.9831476,1.6157441 8.7185878,4.0337352 z"
         transform="matrix(-1.1,0,0,-1.1,-1.1,0)" />
    </marker>
    <marker
       inkscape:stockid="Arrow1Lend"
       orient="auto"
       refY="0"
       refX="0"
       id="Arrow1Lend"
       style="overflow:visible">
      <path
         id="path3272"
         d="M 0,0 L 5,-5 L -12.5,0 L 5,5 L 0,0 z"
         style="fill-rule:evenodd;stroke:#000000;stroke-width:1pt;marker-start:none"
         transform="matrix(-0.8,0,0,-0.8,-10,0)" />
    </marker>
    <marker
       inkscape:stockid="Arrow1Lstart"
       orient="auto"
       refY="0"
       refX="0"
       id="Arrow1Lstart"
       style="overflow:visible">
      <path
         id="path3269"
         d="M 0,0 L 5,-5 L -12.5,0 L 5,5 L 0,0 z"
         style="fill-rule:evenodd;stroke:#000000;stroke-width:1pt;marker-start:none"
         transform="matrix(0.8,0,0,0.8,10,0)" />
    </marker>
    <inkscape:perspective
       sodipodi:type="inkscape:persp3d"
       inkscape:vp_x="0 : 526.18109 : 1"
       inkscape:vp_y="0 : 1000 : 0"
       inkscape:vp_z="744.09448 : 526.18109 : 1"
       inkscape:persp3d-origin="372.04724 : 350.78739 : 1"
       id="perspective2486" />
  </defs>
  <sodipodi:namedview
     inkscape:window-height="750"
     inkscape:window-width="1280"
     inkscape:pageshadow="2"
     inkscape:pageopacity="0.0"
     guidetolerance="10.0"
     gridtolerance="10.0"
     objecttolerance="10.0"
     borderopacity="1.0"
     bordercolor="#666666"
     pagecolor="#ffffff"
     id="base"
     showgrid="false"
     inkscape:zoom="1.13125"
     inkscape:cx="320"
     inkscape:cy="240"
     inkscape:window-x="-8"
     inkscape:window-y="-8"
     inkscape:current-layer="svg2479" />
  <path
     style="fill:#000000;fill-opacity:1;stroke:none;stroke-width:0.5;stroke-miterlimit:4;stroke-dasharray:none;stroke-opacity:1"
     d="M 571.29101,456.50348 C 568.81601,455.09185 565.94514,453.18477 564.9113,452.26553 C 562.2353,449.88615 558.29101,443.43935 558.29101,441.44491 C 558.29101,439.13001 552.80577,429.55625 548.34998,424.09418 C 543.54285,418.2014 539.89286,412.41301 533.79101,401.00563 C 530.20821,394.30759 526.87779,389.78009 522.04101,385.03224 C 518.32851,381.38799 515.28382,377.9986 515.27504,377.50026 C 515.26625,377.00192 513.86795,375.01918 512.1677,373.09418 C 510.46745,371.16918 507.16937,366.65044 504.83863,363.05254 C 501.41932,357.77424 499.24886,355.69397 493.59984,352.28078 C 484.45709,346.75665 482.84647,344.87698 480.58699,337.09418 L 478.69992,330.59418 L 471.24547,328.26972 C 458.29856,324.23261 452.78483,321.22433 447.84492,315.50247 C 443.7801,310.79419 442.20312,309.81578 433.19045,306.41031 C 423.43933,302.72581 422.90384,302.3621 417.66565,295.8658 C 414.68172,292.16519 411.36988,288.67157 410.30599,288.1022 C 406.0378,285.81793 399.52783,285.80867 390.64553,288.07424 C 385.02439,289.508 380.42205,290.10986 377.81351,289.75232 C 372.67574,289.04811 372.01499,289.51585 369.77607,295.44204 C 368.05865,299.98788 365.98071,302.11722 364.60477,300.74127 C 364.27478,300.41128 364.96918,297.82068 366.1479,294.98438 C 367.32661,292.14808 368.27941,289.32498 368.26522,288.71083 C 368.25104,288.09667 366.11354,286.13423 363.51522,284.34985 C 360.91691,282.56548 355.42341,277.72865 351.30745,273.60135 C 341.82208,264.08984 340.29209,263.72262 327.84946,267.97104 C 317.95071,271.35087 314.90966,271.36412 308.29101,268.05624 C 304.04319,265.93325 302.18232,263.90346 299.3872,258.34418 C 298.21194,256.00668 296.61903,254.09418 295.84741,254.09418 C 294.1272,254.09418 288.29101,249.30546 288.29101,247.894 C 288.29101,247.26714 289.64508,247.12562 291.79101,247.5282 C 293.73255,247.89244 295.29101,247.77476 295.29101,247.26392 C 295.29101,244.21211 289.60239,234.1195 286.17706,231.09418 C 283.61803,228.83399 281.36444,225.46878 279.81517,221.59418 C 276.60818,213.57372 274.27792,212.24999 263.29101,212.20743 C 256.51417,212.18118 253.67602,212.65472 249.29101,214.54332 C 243.5391,217.02063 242.58337,218.46606 239.16995,229.85023 C 238.63299,231.64106 236.86557,234.08818 235.24234,235.28829 C 231.65026,237.94402 231.51709,239.42053 234.73732,240.88776 C 236.0828,241.5008 238.8953,243.53309 240.98732,245.40396 C 245.88208,249.78127 247.96646,250.83414 254.46422,252.21148 C 261.0415,253.60566 266.89557,256.48677 268.2345,258.9886 C 268.7902,260.02693 272.69697,263.17546 276.91621,265.98533 C 283.02314,270.05234 285.424,271.09434 288.68928,271.09497 C 291.14223,271.09544 295.26606,272.26666 298.94827,274.00865 C 309.76767,279.12711 312.86568,287.64438 309.97884,304.3347 C 308.63066,312.1292 308.63036,313.64448 309.97606,318.3347 C 310.80603,321.22742 312.03455,325.54369 312.70612,327.92642 C 313.48368,330.68524 315.08279,333.16309 317.10908,334.7489 C 318.85914,336.11853 320.29101,338.10652 320.29101,339.16666 C 320.29101,341.67606 318.65159,341.63645 317.29101,339.09418 C 316.70231,337.99418 315.36838,337.09418 314.32672,337.09418 C 312.04696,337.09418 310.87786,342.04285 309.25615,358.55741 C 308.3041,368.25245 308.37763,369.95986 309.89176,373.31761 C 310.83347,375.40594 311.37295,377.34557 311.09061,377.62791 C 309.96849,378.75003 307.36318,376.76604 305.89446,373.67094 C 304.18498,370.06849 304.59245,363.93422 307.94724,342.7674 C 309.37023,333.78912 309.45316,331.2281 308.43293,327.7674 C 304.15258,313.24794 304.05377,312.66204 305.11506,308.09418 C 305.6901,305.61918 306.44442,300.30902 306.79131,296.29383 C 307.36822,289.61637 307.19922,288.61327 304.81061,284.53741 C 300.23918,276.73686 286.08977,271.86465 283.27602,277.12219 C 281.93813,279.62205 280.29101,278.7927 280.29101,275.61919 C 280.29101,273.22166 276.21391,269.39969 269.54101,265.54189 C 267.75351,264.50848 266.29101,263.34063 266.29101,262.94667 C 266.29101,261.1462 259.53686,257.753 251.61434,255.57329 C 244.03636,253.48838 242.38304,252.61168 238.61656,248.68102 C 233.49135,243.33239 228.0545,241.30429 222.51839,242.67593 C 220.41091,243.19809 218.67923,244.29175 218.50388,245.21135 C 218.33428,246.1008 220.46701,249.31389 223.24327,252.35156 C 227.81515,257.35393 229.62338,261.09418 227.4699,261.09418 C 227.01829,261.09418 223.68033,258.16918 220.0522,254.59418 C 216.42407,251.01918 213.04071,248.09418 212.53363,248.09418 C 212.02655,248.09418 209.96514,251.46918 207.95273,255.59418 C 205.94032,259.71918 203.86973,263.09418 203.35142,263.09418 C 200.96437,263.09418 201.3472,260.36508 204.68028,253.62104 C 206.66618,249.60285 208.29101,245.84783 208.29101,245.27656 C 208.29101,244.11182 198.24795,240.09418 195.3364,240.09418 C 194.30263,240.09418 191.35721,239.19418 188.79101,238.09418 C 182.8986,235.5684 182.75291,235.57377 172.77507,238.6847 L 164.46637,241.27522 L 163.80314,246.98969 C 163.22195,251.99726 163.46841,253.31587 165.79547,257.64917 C 168.09173,261.92512 168.37848,263.40598 167.91481,268.59418 C 166.3659,285.92544 164.71725,289.86131 157.26292,294.02364 C 152.39196,296.74348 145.31441,303.60459 140.79101,309.99182 C 135.44128,317.54587 134.68204,318.09418 129.57172,318.09418 C 125.085,318.09418 124.55522,317.7841 118.82172,311.80215 C 115.50483,308.34153 111.10351,304.26863 109.04101,302.75125 C 105.4233,300.08972 104.05314,297.09418 106.45346,297.09418 C 109.01072,297.09418 117.55248,303.61386 120.38056,307.72434 C 122.03317,310.12632 124.76255,312.80378 126.44586,313.67426 C 131.02631,316.0429 133.88355,314.82933 136.68059,309.3272 C 139.80546,303.18019 150.63771,292.34774 155.97067,290.03676 C 160.93197,287.88684 161.75937,286.50696 162.83189,278.59418 C 164.31124,267.67994 163.89868,261.81347 161.36329,257.71113 C 159.35089,254.45499 159.1354,253.18624 159.71887,248.02907 L 160.39032,242.09418 L 155.24705,242.09418 C 150.94477,242.09418 150.01825,242.42121 149.58076,244.09418 C 148.88471,246.75586 147.00124,246.63204 145.77814,243.84418 C 145.03132,242.14194 143.33032,241.27344 138.79101,240.27668 C 135.49101,239.55205 131.59658,238.31455 130.13672,237.52668 C 128.67686,236.7388 126.10508,236.09418 124.42167,236.09418 C 122.73825,236.09418 119.23276,235.37165 116.63169,234.48857 C 113.88536,233.55617 110.30515,233.0972 108.09285,233.39393 C 103.84115,233.96421 100.29101,233.3197 100.29101,231.97755 C 100.29101,231.4917 102.05421,231.09418 104.20922,231.09418 C 109.39496,231.09418 111.29101,230.27316 111.29101,228.02766 C 111.29101,225.5067 106.33999,221.09418 103.51139,221.09418 C 100.059,221.09418 93.332026,224.87551 92.320218,227.38491 C 91.83028,228.60001 91.176534,230.78455 90.867449,232.23944 C 89.828644,237.12921 82.437418,243.84482 74.791006,246.84637 C 68.829847,249.18639 67.519073,250.1507 65.958648,253.34418 C 63.86123,257.63664 61.291006,258.34411 61.291006,254.62898 C 61.291006,250.46816 66.477414,245.65717 73.136431,243.64098 C 80.131431,241.52307 85.405534,236.09629 87.297532,229.06995 C 88.840962,223.33808 93.015919,219.58921 99.539637,218.07723 C 102.58703,217.37094 105.50689,215.96493 106.49672,214.72716 C 107.97403,212.8798 108.48077,212.76557 110.28102,213.87407 C 111.65348,214.71917 113.96159,214.93679 117.07531,214.51468 C 121.11492,213.96704 122.23047,213.28175 124.85625,209.73478 C 129.39386,203.60526 136.29101,190.65474 136.29101,188.26415 C 136.29101,187.06634 133.95249,183.86042 130.79101,180.7241 C 127.76601,177.72317 125.29101,174.64511 125.29101,173.88397 C 125.29101,173.12283 123.46267,170.72125 121.22804,168.54713 C 118.9934,166.37301 116.35355,163.24418 115.3617,161.59418 C 112.88106,157.46751 111.03017,147.30813 110.83746,136.76106 L 110.67606,127.92793 L 103.73339,121.65401 L 96.790715,115.38008 L 88.790861,114.9028 C 79.30173,114.33667 74.313421,112.11432 66.460419,104.95434 C 63.528596,102.28125 60.716096,100.09418 60.210419,100.09418 C 59.704742,100.09418 59.291006,98.954726 59.291006,97.56206 C 59.291006,93.331078 56.588225,88.245531 53.265796,86.225042 C 51.535738,85.172931 46.62326,83.768115 42.349179,83.103229 C 35.621371,82.056635 34.168236,82.106306 31.524911,83.473222 C 29.845645,84.341604 28.292969,85.58829 28.074521,86.243634 C 27.6775,87.434697 13.355906,89.492413 12.364352,88.500859 C 11.674757,87.811263 14.202813,86.23077 17.291006,85.420808 C 20.882028,84.478966 25.291006,80.99222 25.291006,79.094179 C 25.291006,78.201043 23.941006,76.472198 22.291006,75.2523 C 20.641006,74.032402 19.291006,72.399334 19.291006,71.623259 C 19.291006,68.749279 21.459842,69.023087 24.580002,72.290976 C 29.825055,77.784363 30.560775,78.075723 41.900286,79.150148 C 55.718225,80.459406 59.521282,82.782031 62.962333,92.013285 C 65.300852,98.286792 74.388652,107.06569 80.855293,109.29804 C 83.569935,110.23516 88.696479,111.13516 92.247613,111.29804 C 98.641584,111.59131 98.713448,111.56508 99.655473,108.59418 C 101.74007,102.01993 102.8456,100.09418 104.53512,100.09418 C 106.8385,100.09418 106.84063,103.77379 104.54101,110.26724 L 102.79101,115.20872 L 109.17283,121.13577 C 115.52144,127.03197 115.55197,127.0866 115.03941,131.63404 C 114.42954,137.04473 115.67478,149.30533 117.42874,155.15956 C 118.16093,157.60339 120.96309,161.87377 124.23234,165.52799 C 127.28961,168.94526 131.14101,173.60999 132.79101,175.89406 C 135.00866,178.96391 136.49003,180.05307 138.47146,180.07054 C 140.48087,180.08826 141.23191,180.65746 141.47146,182.34418 C 141.70026,183.95519 142.572,184.68404 144.54101,184.9106 C 146.05351,185.08463 147.29101,185.81754 147.29101,186.53928 C 147.29101,187.26102 148.64308,188.41159 150.29561,189.09609 C 161.27853,193.64536 163.22979,208.39178 154.0617,217.55793 C 145.55914,226.05869 142.75953,233.669 147.25069,236.0726 C 158.21354,241.93974 180.12055,232.66503 190.51896,217.75423 C 191.46932,216.39145 194.39432,214.46257 197.01896,213.46784 C 199.64359,212.47312 203.31631,210.63211 205.18056,209.37671 C 207.04481,208.12132 209.18231,207.09418 209.93056,207.09418 C 210.67881,207.09418 211.29101,206.47669 211.29101,205.72199 C 211.29101,204.89251 209.69602,204.09475 207.25829,203.70494 C 203.37521,203.08401 191.09129,194.99778 187.15752,190.47306 C 184.08556,186.93961 181.49504,180.57566 180.89313,175.08373 C 180.3487,170.11634 180.64814,168.8821 184.04124,162.1079 C 187.70121,154.8009 193.14975,149.24938 202.45457,143.34657 C 206.14247,141.00703 208.29101,136.98957 208.29101,132.43329 C 208.29101,126.49208 209.85954,122.32665 213.99848,117.2764 C 224.36118,104.63202 224.66449,103.28921 221.19971,85.394943 C 218.73116,72.645837 219.01192,69.358679 223.28807,60.94377 C 226.02869,55.550582 226.43679,53.821642 226.08115,49.110949 C 225.85208,46.076725 224.96208,42.019179 224.10338,40.094179 C 221.61978,34.526517 220.06098,25.924211 221.30945,24.675739 C 222.67097,23.314221 223.94143,25.200247 225.29621,30.594179 C 225.84877,32.794179 227.31116,36.603419 228.54594,39.059157 C 231.88683,45.703499 231.60671,54.837914 227.83955,62.094179 C 223.48039,70.490721 223.12554,73.400444 225.26455,83.208799 C 228.31933,97.216403 228.73931,105.10344 226.59584,108.2097 C 225.60318,109.64823 223.61471,112.57984 222.17702,114.72438 C 220.73932,116.86892 218.75711,119.29193 217.77211,120.10886 C 215.24638,122.20361 213.29101,127.3544 213.29101,131.91284 C 213.29101,139.76994 210.01648,144.03013 195.93584,154.49201 C 190.94258,158.202 186.54797,165.19787 185.71297,170.76601 C 183.99243,182.23939 194.0897,193.75599 212.79101,201.65027 C 214.44101,202.34678 219.39101,203.45284 223.79101,204.10818 C 233.02516,205.48353 237.01939,206.95213 239.696,209.95616 C 242.06245,212.6121 244.35274,212.63983 251.05174,210.09368 C 256.92239,207.86236 269.99227,207.32875 273.44989,209.17921 C 276.63171,210.88207 279.88124,209.47748 281.71884,205.60502 C 282.63514,203.67406 283.81373,202.09418 284.33793,202.09418 C 286.14045,202.09418 285.32991,208.08045 283.29101,209.82621 C 282.19101,210.76806 281.29101,212.35658 281.29101,213.35626 C 281.29101,216.40198 285.22766,223.11213 290.02064,228.23622 C 295.06819,233.63246 296.80698,234.02638 306.49179,231.96777 C 310.70764,231.07165 312.7621,229.87422 316.54101,226.11063 C 320.93006,221.73939 321.29101,221.00396 321.29101,216.43282 C 321.29101,212.67742 321.99857,210.37004 324.22831,206.85409 C 329.54908,198.46411 335.12262,196.34962 345.62215,198.73769 C 351.28179,200.02495 353.87276,200.12773 359.04739,199.27027 C 365.49385,198.20205 370.29101,198.96968 370.29101,201.06943 C 370.29101,201.63304 368.51316,202.09418 366.34023,202.09418 C 364.1673,202.09418 360.17882,202.56828 357.47694,203.14773 C 353.63843,203.97094 351.11883,203.86602 345.95228,202.66781 C 336.88023,200.56387 333.76325,201.36916 329.91445,206.81132 C 327.58818,210.10065 326.63769,212.75017 326.19027,217.19265 C 325.72935,221.76922 324.8921,224.02288 322.59291,226.87583 C 317.73934,232.89838 311.44273,236.23204 303.75544,236.8491 C 296.27483,237.44957 296.70738,236.25881 299.85665,247.58187 C 302.89761,258.51551 309.97594,266.08248 317.17002,266.09044 C 319.02848,266.0925 323.75348,264.92056 327.67002,263.48614 C 332.00834,261.89725 336.93026,260.8645 340.26544,260.84329 C 345.66988,260.80891 345.80439,260.88061 350.78679,266.45132 C 353.56259,269.55489 356.55701,272.09418 357.44104,272.09418 C 358.32507,272.09418 359.61519,270.72576 360.30796,269.05325 C 362.20273,264.47888 365.20323,261.09418 367.36359,261.09418 C 369.65118,261.09418 369.79155,261.87248 367.89045,264.01544 C 365.68487,266.50162 361.29101,274.82044 361.29101,276.51006 C 361.29101,277.3521 363.6475,279.628 366.52766,281.56761 C 371.06179,284.62107 372.56246,285.09418 377.71377,285.09418 C 380.98598,285.09418 386.57555,284.3638 390.13504,283.47111 C 398.42305,281.39256 408.43447,282.01478 413.29131,284.91029 C 415.21647,286.05802 418.4839,289.26384 420.55227,292.03434 C 425.03974,298.04512 432.99471,302.60344 437.44404,301.71357 C 439.49464,301.30345 440.29101,301.53793 440.29101,302.55179 C 440.29101,303.32598 441.30351,304.27325 442.54101,304.65685 C 443.77851,305.04044 447.71601,308.38198 451.29101,312.08249 C 460.13865,321.24074 465.08427,323.09516 483.79101,324.26875 C 499.70018,325.26684 502.39637,324.95292 507.29101,321.53267 C 515.82304,315.5707 518.16417,314.27724 524.17161,312.20621 C 527.68094,310.9964 533.55766,309.62917 537.231,309.16792 C 545.80993,308.09072 550.39373,305.69072 559.05757,297.73992 C 562.91946,294.19587 567.13935,290.97644 568.4351,290.58564 C 569.73085,290.19484 576.19101,287.25798 582.79101,284.05929 C 591.18049,279.99332 596.29539,276.7853 599.79101,273.39706 C 607.79307,265.64081 610.20525,264.09418 614.30014,264.09418 C 616.35682,264.09418 619.95271,263.41918 622.29101,262.59418 C 627.53383,260.7444 630.29101,260.68155 630.29101,262.4118 C 630.29101,263.90652 618.25504,268.13092 614.05975,268.10867 C 612.06368,268.09808 609.49252,269.82615 604.50768,274.52859 C 597.81631,280.84089 591.89578,284.31018 572.29101,293.40678 C 567.30625,295.7197 563.21808,298.53416 560.10083,301.79899 C 553.94569,308.24552 547.12934,311.87772 539.70773,312.66578 C 529.468,313.75308 521.73542,316.61388 511.78201,322.99737 C 501.45357,329.62137 497.58696,330.46156 489.11394,327.92298 C 485.79039,326.92722 484.96095,326.99567 483.57672,328.37989 C 482.19525,329.76137 482.1249,330.59638 483.11231,333.89208 C 485.04066,340.32831 488.41055,344.21791 496.2216,349.02307 C 502.56142,352.92316 504.43233,354.76854 508.96663,361.59418 C 515.40803,371.29064 522.48785,379.88249 527.55795,384.15601 C 529.98557,386.20222 533.15305,390.89016 536.46673,397.34121 C 543.07332,410.20288 555.71179,429.05542 560.27555,432.85632 C 561.10905,433.5505 563.02851,434.39425 564.54101,434.73132 C 567.9614,435.49358 568.05282,436.78995 564.79101,438.27613 C 563.05299,439.06803 562.29568,440.20446 562.30632,442.0047 C 562.32988,445.98782 562.60787,446.24793 576.04101,454.85614 C 578.37851,456.35405 580.29101,457.92039 580.29101,458.3369 C 580.29101,459.92145 575.61278,458.96843 571.29101,456.50348 z M 577.29101,457.69296 C 577.29101,457.47228 575.82851,456.35766 574.04101,455.21603 C 572.25351,454.07439 568.99101,451.93899 566.79101,450.47069 C 563.18741,448.06561 562.98921,448.02527 564.79101,450.0636 C 565.89101,451.308 569.04101,453.61973 571.79101,455.20078 C 577.0513,458.22506 577.29101,458.33368 577.29101,457.69296 z M 563.42226,437.55252 C 565.17692,436.99562 564.94563,436.66579 561.61251,434.97174 C 559.51069,433.90349 556.39921,431.13153 554.69812,428.81182 C 546.93162,418.22099 540.19821,407.55244 535.46673,398.34121 C 532.15305,391.89016 528.98557,387.20222 526.55795,385.15601 C 521.48719,380.88193 514.40719,372.28959 507.96726,362.59418 C 503.61027,356.03468 501.49543,353.89134 496.22223,350.69088 C 487.40631,345.34024 486.34988,344.32303 483.65904,338.59418 C 481.1599,333.27346 480.54658,333.57314 482.42953,339.19496 C 484.01035,343.91472 486.49923,346.38632 494.59984,351.28078 C 500.24886,354.69397 502.41932,356.77424 505.83863,362.05254 C 508.16937,365.65044 511.46745,370.16918 513.1677,372.09418 C 514.86795,374.01918 516.26625,376.00192 516.27504,376.50026 C 516.28382,376.9986 519.32851,380.38799 523.04101,384.03224 C 527.87779,388.78009 531.20821,393.30759 534.79101,400.00563 C 540.89286,411.41301 544.54285,417.2014 549.34998,423.09418 C 554.04377,428.84801 559.29101,438.17182 559.29101,440.75837 C 559.29101,444.10427 560.76957,444.49627 561.10076,441.23817 C 561.30465,439.23236 562.098,437.97283 563.42226,437.55252 z M 308.259,373.03437 C 307.33526,371.30835 307.33236,367.94987 308.24617,358.19873 C 308.89584,351.26623 309.88399,343.45668 310.44206,340.84418 C 311.3378,336.65095 311.76247,336.09418 314.065,336.09418 C 316.50791,336.09418 316.55547,336.00804 314.81522,334.73554 C 313.79329,333.98829 312.40095,331.40079 311.72113,328.98554 C 311.04131,326.57029 309.76727,322.11918 308.88992,319.09418 C 307.42718,314.05078 307.42915,312.7796 308.91364,303.78207 C 310.78527,292.43813 310.40291,288.66721 306.74883,282.43199 C 304.64876,278.84849 302.84013,277.3229 297.94827,275.00865 C 294.26606,273.26666 290.14223,272.09544 287.68928,272.09497 C 284.424,272.09434 282.02314,271.05234 275.91621,266.98533 C 271.69697,264.17546 267.7902,261.02693 267.2345,259.9886 C 265.89557,257.48677 260.0415,254.60566 253.46422,253.21148 C 246.96646,251.83414 244.88208,250.78127 239.98732,246.40396 C 237.8953,244.53309 235.0828,242.5008 233.73732,241.88776 C 230.37197,240.35441 230.59593,236.98419 234.24234,234.28829 C 235.86557,233.08818 237.63299,230.64106 238.16995,228.85023 C 241.58337,217.46606 242.5391,216.02063 248.29101,213.54332 C 252.82226,211.59174 255.46431,211.1803 263.29101,211.20743 C 275.38305,211.24934 277.54076,212.40511 280.81517,220.59418 C 282.36444,224.46878 284.61803,227.83399 287.17706,230.09418 C 291.12215,233.57855 296.29101,243.35484 296.29101,247.33211 C 296.29101,248.99839 295.77495,249.24544 293.11098,248.85445 L 289.93095,248.38772 L 292.66674,250.74095 C 294.17143,252.03523 296.0433,253.09418 296.82645,253.09418 C 297.6096,253.09418 299.21194,255.00668 300.3872,257.34418 C 303.08939,262.71862 305.01597,264.89965 308.78865,266.8552 C 314.96816,270.05833 317.91448,270.08595 326.60118,267.02217 C 334.56647,264.21284 340.05542,263.52646 343.45659,264.91447 C 344.37266,265.28831 349.14757,269.46926 354.06749,274.20548 C 358.98742,278.94169 364.42541,283.65121 366.15191,284.67108 C 369.87227,286.86875 370.10181,289.03684 367.30494,295.56168 C 366.2126,298.11 365.69585,299.96201 366.15661,299.67724 C 366.61737,299.39248 367.80733,297.0073 368.80097,294.37684 C 369.79462,291.74637 371.09887,289.24825 371.6993,288.82544 C 372.29974,288.40263 374.81601,288.30773 377.29101,288.61454 C 380.24488,288.98072 384.3679,288.47987 389.29101,287.15682 C 404.25893,283.1343 410.28329,284.64502 418.23761,294.41571 C 423.57526,300.97223 424.18978,301.39311 434.05557,305.24933 C 443.13492,308.79815 444.84434,309.8686 448.86003,314.51996 C 453.84291,320.29161 459.75704,323.49952 472.16656,327.16174 C 477.81768,328.82946 479.67913,329.83587 480.12818,331.46627 C 480.64976,333.36 480.77351,333.27579 481.25264,330.70112 C 482.04715,326.43166 484.30661,325.41608 489.76363,326.87562 C 498.17815,329.12615 500.51059,328.58481 510.78201,321.99737 C 520.73542,315.61388 528.468,312.75308 538.70773,311.66578 C 546.12934,310.87772 552.94569,307.24552 559.10083,300.79899 C 562.21808,297.53416 566.30625,294.7197 571.29101,292.40678 C 590.89578,283.31018 596.81631,279.84089 603.50768,273.52859 C 608.49252,268.82615 611.06368,267.09808 613.05975,267.10867 C 616.03234,267.12443 629.5396,263.00943 628.83338,262.30321 C 628.59469,262.06453 626.26985,262.59485 623.66707,263.48171 C 621.06428,264.36857 617.27558,265.09418 615.24773,265.09418 C 611.21158,265.09418 608.76336,266.66961 600.79101,274.39706 C 597.29539,277.7853 592.18049,280.99332 583.79101,285.05929 C 577.19101,288.25798 570.73085,291.19484 569.4351,291.58564 C 568.13935,291.97644 563.91946,295.19587 560.05757,298.73992 C 551.39373,306.69072 546.80993,309.09072 538.231,310.16792 C 534.55766,310.62917 528.68094,311.9964 525.17161,313.20621 C 519.16417,315.27724 516.82304,316.5707 508.29101,322.53267 C 503.3148,326.00992 500.64417,326.31113 483.79101,325.29591 C 463.99046,324.10314 459.27814,322.38513 450.29101,313.08249 C 446.71601,309.38198 442.77851,306.04044 441.54101,305.65685 C 440.30351,305.27325 439.29101,304.53973 439.29101,304.02679 C 439.29101,303.51386 437.92605,303.09418 436.25777,303.09418 C 431.1959,303.09418 423.68668,298.57222 419.55227,293.03434 C 417.4839,290.26384 414.21647,287.0622 412.29131,285.91957 C 407.53685,283.0977 398.39398,282.49658 390.83091,284.5086 C 387.55286,285.38067 381.69685,286.09418 377.81756,286.09418 C 371.40319,286.09418 370.28998,285.77474 365.52766,282.56761 C 361.52037,279.86895 360.29101,278.44687 360.29101,276.51006 C 360.29101,274.22691 363.72869,266.94949 366.62836,263.09418 C 367.30612,262.19305 366.92041,262.3047 365.66229,263.37382 C 364.51044,264.35262 362.76236,266.94012 361.77764,269.12382 C 359.12927,274.99686 356.18331,274.59739 349.81236,267.50133 C 345.11883,262.27361 344.49722,261.90955 340.29101,261.92487 C 337.81601,261.93389 332.58657,263.10067 328.67002,264.51772 C 316.14673,269.0488 309.45793,267.55749 303.50649,258.90738 C 300.7202,254.85764 297.82982,246.70157 296.62475,239.48852 L 296.1059,236.38286 L 302.75193,235.84938 C 310.44297,235.23202 316.73845,231.89948 321.59291,225.87583 C 323.8921,223.02288 324.72935,220.76922 325.19027,216.19265 C 325.63939,211.73324 326.58759,209.10143 328.94728,205.76474 C 332.8466,200.25095 336.73017,199.29757 346.29101,201.507 C 350.98614,202.59201 353.9017,202.74986 356.79101,202.0755 C 358.99101,201.56201 362.59101,201.09953 364.79101,201.04775 C 367.44518,200.98528 368.18858,200.71573 367.0005,200.2466 C 366.01573,199.85775 362.19073,199.95438 358.5005,200.46134 C 353.38421,201.16421 350.22138,201.02367 345.1808,199.86949 C 335.28772,197.60419 330.52754,199.54297 325.12022,208.03996 C 322.99498,211.37953 322.29101,213.71669 322.29101,217.43282 C 322.29101,222.00396 321.93006,222.73939 317.54101,227.11063 C 312.46726,232.16381 307.03224,234.09418 297.87863,234.09418 C 294.00898,234.09418 293.09671,233.59387 289.02064,229.23622 C 283.7268,223.57668 280.29101,217.3376 280.29101,213.38402 C 280.29101,210.87038 279.91976,210.56995 276.54101,210.34947 C 274.47851,210.21488 269.39361,209.84498 265.24123,209.52747 C 259.05823,209.05469 256.70477,209.32519 252.24123,211.02167 C 245.18844,213.70227 241.12529,213.68262 238.696,210.95616 C 236.01939,207.95213 232.02516,206.48353 222.79101,205.10818 C 218.39101,204.45284 213.44101,203.34678 211.79101,202.65027 C 192.65269,194.57151 183.31719,183.81853 184.60541,171.33685 C 185.26617,164.93476 188.96555,158.20273 193.93392,154.36108 C 209.7331,142.14484 212.29101,138.87752 212.29101,130.91284 C 212.29101,126.3544 214.24638,121.20361 216.77211,119.10886 C 217.75711,118.29193 219.73932,115.86892 221.17702,113.72438 C 222.61471,111.57984 224.5978,108.64823 225.58387,107.2097 C 227.67502,104.15901 227.38269,99.261943 224.21274,84.241439 C 221.92332,73.393183 222.27188,70.127068 226.62971,61.594179 C 230.34464,54.320128 230.91327,45.349272 227.94102,40.906764 C 226.95211,39.428685 225.52438,35.874262 224.76829,33.008045 C 224.01219,30.141828 222.99975,27.402919 222.51841,26.92158 C 221.38614,25.789308 223.53567,35.682503 225.27183,39.594179 C 226.00417,41.244179 226.80309,45.529636 227.04721,49.117418 C 227.44184,54.916984 227.14721,56.317334 224.39147,61.740282 C 220.04925,70.285208 219.86122,72.241074 222.21126,84.418691 C 223.35512,90.34605 224.28282,97.535364 224.27281,100.39494 C 224.2534,105.94178 222.78147,108.77974 214.99848,118.2764 C 210.85954,123.32665 209.29101,127.49208 209.29101,133.43329 C 209.29101,137.98957 207.14247,142.00703 203.45457,144.34657 C 194.11335,150.27247 188.70691,155.79101 185.07434,163.1079 C 181.88398,169.53405 181.44236,171.23142 181.95575,175.09418 C 182.58098,179.79851 185.37162,186.26865 188.15752,189.47306 C 192.09129,193.99778 204.37521,202.08401 208.25829,202.70494 C 211.65402,203.24794 212.29101,203.72449 212.29101,205.72199 C 212.29101,207.05579 211.69549,208.09418 210.93056,208.09418 C 210.18231,208.09418 208.04481,209.12132 206.18056,210.37671 C 204.31631,211.63211 200.64359,213.47312 198.01896,214.46784 C 195.39432,215.46257 192.46932,217.39145 191.51896,218.75423 C 182.8132,231.23785 165.61416,240.24008 153.26406,238.77739 C 145.73866,237.88612 144.29101,236.75901 144.29101,231.79113 C 144.29101,227.03962 146.61497,223.0033 153.0617,216.55793 C 160.47092,209.15028 160.79862,199.38109 153.84277,193.27377 C 151.96158,191.62206 149.49285,189.97563 148.35672,189.61503 C 147.22058,189.25444 146.29101,188.34462 146.29101,187.59321 C 146.29101,186.84181 145.05351,186.08463 143.54101,185.9106 C 141.572,185.68404 140.70026,184.95519 140.47146,183.34418 C 140.23191,181.65746 139.48087,181.08826 137.47146,181.07054 C 135.49003,181.05307 134.00866,179.96391 131.79101,176.89406 C 130.14101,174.60999 126.28961,169.94526 123.23234,166.52799 C 119.98045,162.89318 117.16018,158.60089 116.43631,156.18481 C 114.6525,150.23099 113.22963,136.33021 113.94567,131.85238 C 114.53649,128.15755 114.33354,127.80996 108.42503,122.39761 C 101.76579,116.29757 101.20882,114.61998 103.79101,108.43994 C 105.40508,104.57692 105.75788,101.09418 104.53512,101.09418 C 103.77155,101.09418 102.40077,104.09575 100.65328,109.59418 L 99.699833,112.59418 L 92.24542,112.31393 C 88.145492,112.1598 82.569935,111.2598 79.855293,110.31393 C 73.384444,108.05929 64.294792,99.270535 61.962333,93.013285 C 58.517269,83.771266 54.723407,81.459897 40.839422,80.144381 C 34.82559,79.574567 29.451993,78.655166 28.898094,78.101267 C 27.242445,76.445618 26.291006,76.948474 26.291006,79.479169 C 26.291006,81.864457 22.925784,84.900035 18.791006,86.244499 C 17.451034,86.680204 18.145376,86.927715 20.894983,86.994499 C 23.97229,87.069243 25.671525,86.470867 27.687448,84.602573 C 29.166116,83.23219 31.497147,81.829561 32.867517,81.48562 C 36.554554,80.560232 50.643803,83.022377 54.265796,85.225042 C 57.588225,87.245531 60.291006,92.331078 60.291006,96.56206 C 60.291006,97.954726 60.704742,99.094179 61.210419,99.094179 C 61.716096,99.094179 64.528596,101.28125 67.460419,103.95434 C 75.309987,111.11119 80.302899,113.33673 89.777653,113.90203 L 97.7643,114.37855 L 104.88821,120.77972 L 112.01212,127.1809 L 111.94244,135.38754 C 111.85954,145.15008 113.83212,156.42868 116.35098,160.59418 C 117.34872,162.24418 119.9934,165.37301 122.22804,167.54713 C 124.46267,169.72125 126.29101,172.12283 126.29101,172.88397 C 126.29101,173.64511 128.76601,176.72317 131.79101,179.7241 C 136.08913,183.98802 137.29101,185.85422 137.29101,188.26415 C 137.29101,191.49632 131.1579,203.55901 125.85625,210.7542 C 123.04639,214.56764 122.30982,214.97181 117.01537,215.60537 C 113.14056,216.06904 110.77745,215.91285 109.83511,215.13078 C 108.72923,214.21298 108.21505,214.3676 107.41753,215.85778 C 106.77638,217.05577 104.37892,218.20383 100.8859,218.98553 C 94.013612,220.52348 89.871545,224.19986 88.291349,230.16408 C 87.645794,232.60064 86.121622,235.71918 84.904298,237.09418 C 80.383957,242.20003 80.217713,243.42499 84.681014,238.73944 C 87.224469,236.06933 89.558365,232.69433 89.867449,231.23944 C 90.980084,226.00215 92.275745,224.14261 96.211172,222.13491 C 101.71152,219.32884 106.16603,219.49571 109.55123,222.63465 C 112.45496,225.32714 113.33221,230.50738 111.04101,231.4319 C 110.35351,231.70931 110.69101,231.97859 111.79101,232.03029 C 112.89101,232.08199 115.59101,232.77277 117.79101,233.56534 C 119.99101,234.35792 123.29658,235.02615 125.13672,235.05029 C 126.97686,235.07443 129.67686,235.7388 131.13672,236.52668 C 132.59658,237.31455 136.48185,238.55205 139.77065,239.27668 C 144.25575,240.26489 146.03511,241.17007 146.88986,242.89833 C 148.00025,245.14347 148.04318,245.14987 148.5666,243.14833 C 149.03589,241.35375 149.8901,241.09418 155.32656,241.09418 L 161.54934,241.09418 L 160.86558,247.13781 C 160.27071,252.39584 160.47817,253.66094 162.46156,256.87014 C 164.9641,260.91932 165.40579,268.19186 163.84168,279.59418 C 162.75558,287.51184 161.92921,288.88804 156.97067,291.03676 C 152.28335,293.06796 140.86958,303.99843 138.63695,308.59418 L 137.17954,311.59418 L 139.98527,308.23414 C 145.95046,301.09046 152.08923,295.35414 156.26292,293.02364 C 163.59148,288.93153 164.68178,286.46293 166.93633,268.85747 C 167.44003,264.92419 167.07635,263.19863 164.79225,258.68418 C 162.31111,253.78028 162.10959,252.61261 162.73558,246.76714 L 163.42958,240.28669 L 171.75668,237.69044 C 181.76848,234.56892 183.74719,234.5035 189.79101,237.09418 C 192.35721,238.19418 195.30263,239.09418 196.3364,239.09418 C 197.37017,239.09418 200.70787,240.02651 203.7535,241.16603 C 210.43364,243.66539 210.72096,245.09889 206.21081,253.426 C 204.5167,256.55384 203.28721,259.58277 203.4786,260.15696 C 203.67,260.73115 205.34245,258.02692 207.19516,254.14756 C 211.02733,246.12342 213.52994,245.03989 217.26469,249.78785 C 218.43005,251.26937 221.27521,254.0753 223.58727,256.02326 C 227.60284,259.40645 227.55601,259.30465 222.54101,253.749 C 216.54165,247.10286 215.74397,243.63286 219.85611,242.06943 C 226.59837,239.50603 234.22815,241.77321 240.03956,248.06692 C 243.27424,251.57005 245.05492,252.49349 252.55379,254.55663 C 260.5277,256.75048 267.29101,260.14196 267.29101,261.94667 C 267.29101,262.34063 268.75351,263.50848 270.54101,264.54189 C 277.55362,268.59609 281.29026,272.19613 281.32142,274.92821 C 281.34758,277.22188 281.49417,277.34979 282.37111,275.84418 C 283.12608,274.54797 284.68267,274.09418 288.37394,274.09418 C 295.60551,274.09418 302.46848,277.8345 305.86207,283.62522 L 308.52496,288.1691 L 307.30806,298.88164 C 305.66078,313.38287 305.7447,315.64975 308.1846,322.55952 C 310.68585,329.64305 310.78375,333.20821 308.79653,344.84374 C 305.84437,362.12906 305.3966,369.29235 307.04402,372.87994 C 307.87386,374.6871 308.75538,375.96314 309.00294,375.71558 C 309.2505,375.46802 308.91573,374.26148 308.259,373.03437 z M 319.29101,338.59418 C 319.29101,338.31918 319.06601,338.09418 318.79101,338.09418 C 318.51601,338.09418 318.29101,338.31918 318.29101,338.59418 C 318.29101,338.86918 318.51601,339.09418 318.79101,339.09418 C 319.06601,339.09418 319.29101,338.86918 319.29101,338.59418 z M 134.84988,315.62428 C 136.61927,314.28443 136.51907,314.2537 133.71737,315.27695 C 129.39871,316.85423 125.38771,315.54854 121.83318,311.40832 C 116.38208,305.05903 112.64451,301.627 109.18678,299.79573 L 105.79101,297.99728 L 109.23146,300.79573 C 111.12371,302.33488 115.65974,306.63168 119.31153,310.34418 C 124.9846,316.11157 126.45755,317.09418 129.42994,317.09418 C 131.34329,317.09418 133.78226,316.43273 134.84988,315.62428 z M 137.29101,312.59418 C 137.29101,312.31918 137.06601,312.09418 136.79101,312.09418 C 136.51601,312.09418 136.29101,312.31918 136.29101,312.59418 C 136.29101,312.86918 136.51601,313.09418 136.79101,313.09418 C 137.06601,313.09418 137.29101,312.86918 137.29101,312.59418 z M 65.128551,251.9233 C 66.44175,249.29358 68.102626,248.08507 73.034309,246.17082 C 80.363336,243.32602 80.787511,242.40049 73.710588,244.6952 C 68.518874,246.37862 62.291006,251.86009 62.291006,254.74616 C 62.291006,256.86679 63.024142,256.13745 65.128551,251.9233 z M 105.29101,232.59418 C 105.29101,232.31918 105.06601,232.09418 104.79101,232.09418 C 104.51601,232.09418 104.29101,232.31918 104.29101,232.59418 C 104.29101,232.86918 104.51601,233.09418 104.79101,233.09418 C 105.06601,233.09418 105.29101,232.86918 105.29101,232.59418 z M 283.81493,207.01882 C 284.76058,204.03933 283.97435,203.80696 282.62461,206.66703 C 281.99462,208.00196 281.85652,209.09418 282.31771,209.09418 C 282.7789,209.09418 283.45265,208.16027 283.81493,207.01882 z M 26.291006,75.594179 C 26.291006,75.319179 26.066006,75.094179 25.791006,75.094179 C 25.516006,75.094179 25.291006,75.319179 25.291006,75.594179 C 25.291006,75.869179 25.516006,76.094179 25.791006,76.094179 C 26.066006,76.094179 26.291006,75.869179 26.291006,75.594179 z M 23.058933,73.094179 C 22.371972,71.994179 21.398414,71.094179 20.895472,71.094179 C 20.392529,71.094179 20.79552,71.994179 21.791006,73.094179 C 22.786492,74.194179 23.76005,75.094179 23.954467,75.094179 C 24.148885,75.094179 23.745894,74.194179 23.058933,73.094179 z"
     id="path2490" />
  <path
     style="fill:none;fill-opacity:1;fill-rule:evenodd;stroke:#000000;stroke-width:1.60000002;stroke-linecap:butt;stroke-linejoin:miter;marker-start:url(#Arrow2Lstart);marker-end:url(#Arrow2Lend);stroke-miterlimit:4;stroke-dasharray:none;stroke-opacity:1"
     d="M 254.35294,232.30476 L 138.75929,311.91102"
     id="path3264" />
  <text
     xml:space="preserve"
     style="font-size:40px;font-style:normal;font-weight:normal;fill:#000000;fill-opacity:1;stroke:none;stroke-width:1px;stroke-linecap:butt;stroke-linejoin:miter;stroke-opacity:1;font-family:Bitstream Vera Sans"
     x="256.82355"
     y="244.89301"
     id="text5631"><tspan
       sodipodi:role="line"
       id="tspan5633"
       x="256.82355"
       y="244.89301">c</tspan></text>
  <text
     xml:space="preserve"
     style="font-size:40px;font-style:normal;font-weight:normal;fill:#000000;fill-opacity:1;stroke:none;stroke-width:1px;stroke-linecap:butt;stroke-linejoin:miter;stroke-opacity:1;font-family:Bitstream Vera Sans"
     x="197.17647"
     y="304.42242"
     id="text5635"><tspan
       sodipodi:role="line"
       id="tspan5637"
       x="197.17647"
       y="304.42242">d</tspan></text>
  <text
     xml:space="preserve"
     style="font-size:40px;font-style:normal;font-weight:normal;fill:#000000;fill-opacity:1;stroke:none;stroke-width:1px;stroke-linecap:butt;stroke-linejoin:miter;stroke-opacity:1;font-family:Bitstream Vera Sans"
     x="131.24863"
     y="340.14365"
     id="text2402"><tspan
       sodipodi:role="line"
       id="tspan2404"
       x="131.24863"
       y="340.14365">p</tspan></text>
</svg>
