<?xml version="1.0" encoding="UTF-8" standalone="no"?>
<!-- Created with Inkscape (http://www.inkscape.org/) -->
<svg
   xmlns:dc="http://purl.org/dc/elements/1.1/"
   xmlns:cc="http://creativecommons.org/ns#"
   xmlns:rdf="http://www.w3.org/1999/02/22-rdf-syntax-ns#"
   xmlns:svg="http://www.w3.org/2000/svg"
   xmlns="http://www.w3.org/2000/svg"
   xmlns:sodipodi="http://sodipodi.sourceforge.net/DTD/sodipodi-0.dtd"
   xmlns:inkscape="http://www.inkscape.org/namespaces/inkscape"
   id="svg4698"
   sodipodi:version="0.32"
   inkscape:version="0.46"
   width="502"
   height="252"
   version="1.0"
   sodipodi:docname="qkochn1.svg"
   inkscape:output_extension="org.inkscape.output.svg.inkscape">
  <metadata
     id="metadata4703">
    <rdf:RDF>
      <cc:Work
         rdf:about="">
        <dc:format>image/svg+xml</dc:format>
        <dc:type
           rdf:resource="http://purl.org/dc/dcmitype/StillImage" />
      </cc:Work>
    </rdf:RDF>
  </metadata>
  <defs
     id="defs4701">
    <inkscape:perspective
       sodipodi:type="inkscape:persp3d"
       inkscape:vp_x="0 : 526.18109 : 1"
       inkscape:vp_y="0 : 1000 : 0"
       inkscape:vp_z="744.09448 : 526.18109 : 1"
       inkscape:persp3d-origin="372.04724 : 350.78739 : 1"
       id="perspective4705" />
  </defs>
  <sodipodi:namedview
     inkscape:window-height="750"
     inkscape:window-width="1280"
     inkscape:pageshadow="2"
     inkscape:pageopacity="0.0"
     guidetolerance="10.0"
     gridtolerance="10.0"
     objecttolerance="10.0"
     borderopacity="1.0"
     bordercolor="#666666"
     pagecolor="#ffffff"
     id="base"
     showgrid="false"
     inkscape:zoom="0.924"
     inkscape:cx="250"
     inkscape:cy="250"
     inkscape:window-x="-8"
     inkscape:window-y="-8"
     inkscape:current-layer="svg4698" />
  <path
     style="fill:#000000;stroke:#000000;stroke-opacity:1"
     d="M 126,189.00751 L 126,126.51503 L 63.25,126.24986 L 0.5,125.9847 L 63.75,125.74235 L 127,125.5 L 127,188 L 127,250.5 L 189,250.5 L 251,250.5 L 251,125.5 L 251,0.5 L 314,0.5 L 377,0.5 L 377,62.99243 L 377,125.48486 L 439.25,125.75014 L 501.5,126.01542 L 438.75,126.25771 L 376,126.5 L 376,64 L 376,1.5 L 314,1.5 L 252,1.5 L 252,126.5 L 252,251.5 L 189,251.5 L 126,251.5 L 126,189.00751 z"
     id="path4709" />
</svg>
