<?xml version="1.0" encoding="UTF-8" standalone="no"?>
<!-- Created with Inkscape (http://www.inkscape.org/) -->
<svg
   xmlns:dc="http://purl.org/dc/elements/1.1/"
   xmlns:cc="http://creativecommons.org/ns#"
   xmlns:rdf="http://www.w3.org/1999/02/22-rdf-syntax-ns#"
   xmlns:svg="http://www.w3.org/2000/svg"
   xmlns="http://www.w3.org/2000/svg"
   xmlns:sodipodi="http://sodipodi.sourceforge.net/DTD/sodipodi-0.dtd"
   xmlns:inkscape="http://www.inkscape.org/namespaces/inkscape"
   id="svg5297"
   sodipodi:version="0.32"
   inkscape:version="0.46"
   width="502"
   height="315"
   version="1.0"
   sodipodi:docname="qkochn2.svg"
   inkscape:output_extension="org.inkscape.output.svg.inkscape">
  <metadata
     id="metadata5302">
    <rdf:RDF>
      <cc:Work
         rdf:about="">
        <dc:format>image/svg+xml</dc:format>
        <dc:type
           rdf:resource="http://purl.org/dc/dcmitype/StillImage" />
      </cc:Work>
    </rdf:RDF>
  </metadata>
  <defs
     id="defs5300">
    <inkscape:perspective
       sodipodi:type="inkscape:persp3d"
       inkscape:vp_x="0 : 526.18109 : 1"
       inkscape:vp_y="0 : 1000 : 0"
       inkscape:vp_z="744.09448 : 526.18109 : 1"
       inkscape:persp3d-origin="372.04724 : 350.78739 : 1"
       id="perspective5304" />
  </defs>
  <sodipodi:namedview
     inkscape:window-height="750"
     inkscape:window-width="1280"
     inkscape:pageshadow="2"
     inkscape:pageopacity="0.0"
     guidetolerance="10.0"
     gridtolerance="10.0"
     objecttolerance="10.0"
     borderopacity="1.0"
     bordercolor="#666666"
     pagecolor="#ffffff"
     id="base"
     showgrid="false"
     inkscape:zoom="0.924"
     inkscape:cx="418.83117"
     inkscape:cy="250"
     inkscape:window-x="-8"
     inkscape:window-y="-8"
     inkscape:current-layer="svg5297" />
  <path
     style="fill:#000000;stroke:#000000;stroke-opacity:1"
     d="M 157,299 L 157,283.5 L 141.5,283.5 L 126,283.5 L 126,267 L 126,250.5 L 141.5,250.5 L 157,250.5 L 157,235.5 L 157,220.5 L 125.5,220.5 L 94,220.5 L 94,204.5 L 94,188.5 L 110,188.5 L 126,188.5 L 126,173.5 L 126,158.5 L 110,158.5 L 94,158.5 L 94,142.5 L 94,126.5 L 79,126.5 L 64,126.5 L 64,158 L 64,189.5 L 48,189.5 L 32,189.5 L 32,174.02539 L 32,158.55079 L 16.25,158.2481 L 0.5,157.94541 L 16.75,157.72271 L 33,157.5 L 33,173 L 33,188.5 L 48,188.5 L 63,188.5 L 63,157 L 63,125.5 L 79,125.5 L 95,125.5 L 95,141.5 L 95,157.5 L 111,157.5 L 127,157.5 L 127,173.5 L 127,189.5 L 111,189.5 L 95,189.5 L 95,204.5 L 95,219.5 L 126.5,219.5 L 158,219.5 L 158,235.5 L 158,251.5 L 142.5,251.5 L 127,251.5 L 127,267 L 127,282.5 L 142.5,282.5 L 158,282.5 L 158,298 L 158,313.5 L 173,313.5 L 188,313.5 L 188,282 L 188,250.5 L 204,250.5 L 220,250.5 L 220,266.5 L 220,282.5 L 235.5,282.5 L 251,282.5 L 251,266.5 L 251,250.5 L 266.5,250.5 L 282,250.5 L 282,235.5 L 282,220.5 L 250.5,220.5 L 219,220.5 L 219,204.5 L 219,188.5 L 235,188.5 L 251,188.5 L 251,157 L 251,125.5 L 266.5,125.5 L 282,125.5 L 282,110.5 L 282,95.5 L 250.5,95.5 L 219,95.5 L 219,79.5 L 219,63.5 L 235,63.5 L 251,63.5 L 251,48 L 251,32.5 L 267,32.5 L 283,32.5 L 283,48 L 283,63.5 L 298,63.5 L 313,63.5 L 313,32 L 313,0.5 L 329,0.5 L 345,0.5 L 345,16.5 L 345,32.5 L 361,32.5 L 377,32.5 L 377,48.5 L 377,64.5 L 361,64.5 L 345,64.5 L 345,79.5 L 345,94.5 L 376.5,94.5 L 408,94.5 L 408,110.5 L 408,126.5 L 392.5,126.5 L 377,126.5 L 377,142 L 377,157.5 L 392.5,157.5 L 408,157.5 L 408,173 L 408,188.5 L 423,188.5 L 438,188.5 L 438,157 L 438,125.5 L 454,125.5 L 470,125.5 L 470,141.47461 L 470,157.44921 L 485.75,157.7519 L 501.5,158.05459 L 485.25,158.27729 L 469,158.5 L 469,142.5 L 469,126.5 L 454,126.5 L 439,126.5 L 439,158 L 439,189.5 L 423,189.5 L 407,189.5 L 407,174 L 407,158.5 L 391.5,158.5 L 376,158.5 L 376,142 L 376,125.5 L 391.5,125.5 L 407,125.5 L 407,110.5 L 407,95.5 L 375.5,95.5 L 344,95.5 L 344,79.5 L 344,63.5 L 360,63.5 L 376,63.5 L 376,48.5 L 376,33.5 L 360,33.5 L 344,33.5 L 344,17.5 L 344,1.5 L 329,1.5 L 314,1.5 L 314,33 L 314,64.5 L 298,64.5 L 282,64.5 L 282,49 L 282,33.5 L 267,33.5 L 252,33.5 L 252,49 L 252,64.5 L 236,64.5 L 220,64.5 L 220,79.5 L 220,94.5 L 251.5,94.5 L 283,94.5 L 283,110.5 L 283,126.5 L 267.5,126.5 L 252,126.5 L 252,158 L 252,189.5 L 236,189.5 L 220,189.5 L 220,204.5 L 220,219.5 L 251.5,219.5 L 283,219.5 L 283,235.5 L 283,251.5 L 267.5,251.5 L 252,251.5 L 252,267.5 L 252,283.5 L 235.5,283.5 L 219,283.5 L 219,267.5 L 219,251.5 L 204,251.5 L 189,251.5 L 189,283 L 189,314.5 L 173,314.5 L 157,314.5 L 157,299 z"
     id="path5308" />
</svg>
