<?xml version="1.0" encoding="UTF-8" standalone="no"?>
<!-- Created with Inkscape (http://www.inkscape.org/) -->
<svg
   xmlns:dc="http://purl.org/dc/elements/1.1/"
   xmlns:cc="http://creativecommons.org/ns#"
   xmlns:rdf="http://www.w3.org/1999/02/22-rdf-syntax-ns#"
   xmlns:svg="http://www.w3.org/2000/svg"
   xmlns="http://www.w3.org/2000/svg"
   xmlns:sodipodi="http://sodipodi.sourceforge.net/DTD/sodipodi-0.dtd"
   xmlns:inkscape="http://www.inkscape.org/namespaces/inkscape"
   id="svg5896"
   sodipodi:version="0.32"
   inkscape:version="0.46"
   width="502"
   height="331"
   version="1.0"
   sodipodi:docname="qkochn3.svg"
   inkscape:output_extension="org.inkscape.output.svg.inkscape">
  <metadata
     id="metadata5901">
    <rdf:RDF>
      <cc:Work
         rdf:about="">
        <dc:format>image/svg+xml</dc:format>
        <dc:type
           rdf:resource="http://purl.org/dc/dcmitype/StillImage" />
      </cc:Work>
    </rdf:RDF>
  </metadata>
  <defs
     id="defs5899">
    <inkscape:perspective
       sodipodi:type="inkscape:persp3d"
       inkscape:vp_x="0 : 526.18109 : 1"
       inkscape:vp_y="0 : 1000 : 0"
       inkscape:vp_z="744.09448 : 526.18109 : 1"
       inkscape:persp3d-origin="372.04724 : 350.78739 : 1"
       id="perspective5903" />
  </defs>
  <sodipodi:namedview
     inkscape:window-height="750"
     inkscape:window-width="1280"
     inkscape:pageshadow="2"
     inkscape:pageopacity="0.0"
     guidetolerance="10.0"
     gridtolerance="10.0"
     objecttolerance="10.0"
     borderopacity="1.0"
     bordercolor="#666666"
     pagecolor="#ffffff"
     id="base"
     showgrid="false"
     inkscape:zoom="0.924"
     inkscape:cx="250"
     inkscape:cy="250"
     inkscape:window-x="-8"
     inkscape:window-y="-8"
     inkscape:current-layer="svg5896" />
  <path
     style="fill:#000000;stroke:#000000;stroke-opacity:1"
     d="M 165,326.5 L 165,322.5 L 161,322.5 L 157,322.5 L 157,318 L 157,313.5 L 161,313.5 L 165,313.5 L 165,310 L 165,306.5 L 157,306.5 L 149,306.5 L 149,302 L 149,297.5 L 153,297.5 L 157,297.5 L 157,294.5 L 157,291.5 L 153,291.5 L 149,291.5 L 149,287.5 L 149,283.5 L 145.5,283.5 L 142,283.5 L 142,291 L 142,298.5 L 137.5,298.5 L 133,298.5 L 133,295 L 133,291.5 L 129.5,291.5 L 126,291.5 L 126,287 L 126,282.5 L 129.5,282.5 L 133,282.5 L 133,279 L 133,275.5 L 125.5,275.5 L 118,275.5 L 118,271 L 118,266.5 L 122,266.5 L 126,266.5 L 126,262.5 L 126,258.5 L 130,258.5 L 134,258.5 L 134,262.5 L 134,266.5 L 137.5,266.5 L 141,266.5 L 141,258.5 L 141,250.5 L 145.5,250.5 L 150,250.5 L 150,254.5 L 150,258.5 L 153.5,258.5 L 157,258.5 L 157,254.5 L 157,250.5 L 161,250.5 L 165,250.5 L 165,247.5 L 165,244.5 L 157,244.5 L 149,244.5 L 149,240 L 149,235.5 L 153,235.5 L 157,235.5 L 157,232 L 157,228.5 L 153,228.5 L 149,228.5 L 149,224.5 L 149,220.5 L 145.5,220.5 L 142,220.5 L 142,228.5 L 142,236.5 L 137.5,236.5 L 133,236.5 L 133,232.5 L 133,228.5 L 125.5,228.5 L 118,228.5 L 118,224.5 L 118,220.5 L 114.5,220.5 L 111,220.5 L 111,228.5 L 111,236.5 L 106.5,236.5 L 102,236.5 L 102,232.5 L 102,228.5 L 98,228.5 L 94,228.5 L 94,224 L 94,219.5 L 98,219.5 L 102,219.5 L 102,216 L 102,212.5 L 94,212.5 L 86,212.5 L 86,208.5 L 86,204.5 L 90,204.5 L 94,204.5 L 94,200.5 L 94,196.5 L 98.5,196.5 L 103,196.5 L 103,200.5 L 103,204.5 L 106.5,204.5 L 110,204.5 L 110,196.5 L 110,188.5 L 114.5,188.5 L 119,188.5 L 119,192.5 L 119,196.5 L 122.5,196.5 L 126,196.5 L 126,192.5 L 126,188.5 L 129.5,188.5 L 133,188.5 L 133,185 L 133,181.5 L 125.5,181.5 L 118,181.5 L 118,177 L 118,172.5 L 122,172.5 L 126,172.5 L 126,169.5 L 126,166.5 L 122,166.5 L 118,166.5 L 118,162.5 L 118,158.5 L 114.5,158.5 L 111,158.5 L 111,166 L 111,173.5 L 106.5,173.5 L 102,173.5 L 102,170 L 102,166.5 L 98,166.5 L 94,166.5 L 94,162 L 94,157.5 L 98,157.5 L 102,157.5 L 102,154 L 102,150.5 L 94,150.5 L 86,150.5 L 86,146 L 86,141.5 L 90,141.5 L 94,141.5 L 94,138 L 94,134.5 L 90,134.5 L 86,134.5 L 86,130.5 L 86,126.5 L 83,126.5 L 80,126.5 L 80,134.5 L 80,142.5 L 75.5,142.5 L 71,142.5 L 71,138.5 L 71,134.5 L 67.5,134.5 L 64,134.5 L 64,138.5 L 64,142.5 L 60,142.5 L 56,142.5 L 56,146 L 56,149.5 L 64,149.5 L 72,149.5 L 72,154 L 72,158.5 L 68,158.5 L 64,158.5 L 64,166 L 64,173.5 L 60,173.5 L 56,173.5 L 56,177 L 56,180.5 L 64,180.5 L 72,180.5 L 72,185 L 72,189.5 L 68,189.5 L 64,189.5 L 64,193.5 L 64,197.5 L 59.5,197.5 L 55,197.5 L 55,193.5 L 55,189.5 L 51.5,189.5 L 48,189.5 L 48,197.5 L 48,205.5 L 44,205.5 L 40,205.5 L 40,201.5 L 40,197.5 L 36,197.5 L 32,197.5 L 32,193 L 32,188.5 L 36,188.5 L 40,188.5 L 40,185 L 40,181.5 L 32,181.5 L 24,181.5 L 24,177 L 24,172.5 L 28,172.5 L 32,172.5 L 32,169.5 L 32,166.5 L 28,166.5 L 24,166.5 L 24,162.5 L 24,158.5 L 20.5,158.5 L 17,158.5 L 17,166 L 17,173.5 L 12.5,173.5 L 8,173.5 L 8,170.06037 L 8,166.62073 L 4.25,166.22847 L 0.5,165.83621 L 4.75,165.6681 L 9,165.5 L 9,169 L 9,172.5 L 12.5,172.5 L 16,172.5 L 16,165 L 16,157.5 L 20.5,157.5 L 25,157.5 L 25,161.5 L 25,165.5 L 29,165.5 L 33,165.5 L 33,169.5 L 33,173.5 L 29,173.5 L 25,173.5 L 25,177 L 25,180.5 L 33,180.5 L 41,180.5 L 41,185 L 41,189.5 L 37,189.5 L 33,189.5 L 33,193 L 33,196.5 L 37,196.5 L 41,196.5 L 41,200.5 L 41,204.5 L 44,204.5 L 47,204.5 L 47,196.5 L 47,188.5 L 51.5,188.5 L 56,188.5 L 56,192.5 L 56,196.5 L 59.5,196.5 L 63,196.5 L 63,192.5 L 63,188.5 L 67,188.5 L 71,188.5 L 71,185 L 71,181.5 L 63,181.5 L 55,181.5 L 55,177 L 55,172.5 L 59,172.5 L 63,172.5 L 63,165 L 63,157.5 L 67,157.5 L 71,157.5 L 71,154 L 71,150.5 L 63,150.5 L 55,150.5 L 55,146 L 55,141.5 L 59,141.5 L 63,141.5 L 63,137.5 L 63,133.5 L 67.5,133.5 L 72,133.5 L 72,137.5 L 72,141.5 L 75.5,141.5 L 79,141.5 L 79,133.5 L 79,125.5 L 83,125.5 L 87,125.5 L 87,129.5 L 87,133.5 L 91,133.5 L 95,133.5 L 95,138 L 95,142.5 L 91,142.5 L 87,142.5 L 87,146 L 87,149.5 L 95,149.5 L 103,149.5 L 103,154 L 103,158.5 L 99,158.5 L 95,158.5 L 95,162 L 95,165.5 L 99,165.5 L 103,165.5 L 103,169 L 103,172.5 L 106.5,172.5 L 110,172.5 L 110,165 L 110,157.5 L 114.5,157.5 L 119,157.5 L 119,161.5 L 119,165.5 L 123,165.5 L 127,165.5 L 127,169.5 L 127,173.5 L 123,173.5 L 119,173.5 L 119,177 L 119,180.5 L 126.5,180.5 L 134,180.5 L 134,185 L 134,189.5 L 130.5,189.5 L 127,189.5 L 127,193.5 L 127,197.5 L 122.5,197.5 L 118,197.5 L 118,193.5 L 118,189.5 L 114.5,189.5 L 111,189.5 L 111,197.5 L 111,205.5 L 106.5,205.5 L 102,205.5 L 102,201.5 L 102,197.5 L 98.5,197.5 L 95,197.5 L 95,201.5 L 95,205.5 L 91,205.5 L 87,205.5 L 87,208.5 L 87,211.5 L 95,211.5 L 103,211.5 L 103,216 L 103,220.5 L 99,220.5 L 95,220.5 L 95,224 L 95,227.5 L 99,227.5 L 103,227.5 L 103,231.5 L 103,235.5 L 106.5,235.5 L 110,235.5 L 110,227.5 L 110,219.5 L 114.5,219.5 L 119,219.5 L 119,223.5 L 119,227.5 L 126.5,227.5 L 134,227.5 L 134,231.5 L 134,235.5 L 137.5,235.5 L 141,235.5 L 141,227.5 L 141,219.5 L 145.5,219.5 L 150,219.5 L 150,223.5 L 150,227.5 L 154,227.5 L 158,227.5 L 158,232 L 158,236.5 L 154,236.5 L 150,236.5 L 150,240 L 150,243.5 L 158,243.5 L 166,243.5 L 166,247.5 L 166,251.5 L 162,251.5 L 158,251.5 L 158,255.5 L 158,259.5 L 153.5,259.5 L 149,259.5 L 149,255.5 L 149,251.5 L 145.5,251.5 L 142,251.5 L 142,259.5 L 142,267.5 L 137.5,267.5 L 133,267.5 L 133,263.5 L 133,259.5 L 130,259.5 L 127,259.5 L 127,263.5 L 127,267.5 L 123,267.5 L 119,267.5 L 119,271 L 119,274.5 L 126.5,274.5 L 134,274.5 L 134,279 L 134,283.5 L 130.5,283.5 L 127,283.5 L 127,287 L 127,290.5 L 130.5,290.5 L 134,290.5 L 134,294 L 134,297.5 L 137.5,297.5 L 141,297.5 L 141,290 L 141,282.5 L 145.5,282.5 L 150,282.5 L 150,286.5 L 150,290.5 L 154,290.5 L 158,290.5 L 158,294.5 L 158,298.5 L 154,298.5 L 150,298.5 L 150,302 L 150,305.5 L 158,305.5 L 166,305.5 L 166,310 L 166,314.5 L 162,314.5 L 158,314.5 L 158,318 L 158,321.5 L 162,321.5 L 166,321.5 L 166,325.5 L 166,329.5 L 169,329.5 L 172,329.5 L 172,321.5 L 172,313.5 L 176.5,313.5 L 181,313.5 L 181,317.5 L 181,321.5 L 184.5,321.5 L 188,321.5 L 188,317.5 L 188,313.5 L 192,313.5 L 196,313.5 L 196,310 L 196,306.5 L 188,306.5 L 180,306.5 L 180,302 L 180,297.5 L 184,297.5 L 188,297.5 L 188,290 L 188,282.5 L 192,282.5 L 196,282.5 L 196,279 L 196,275.5 L 188,275.5 L 180,275.5 L 180,271 L 180,266.5 L 184,266.5 L 188,266.5 L 188,262.5 L 188,258.5 L 192.5,258.5 L 197,258.5 L 197,262.5 L 197,266.5 L 200.5,266.5 L 204,266.5 L 204,258.5 L 204,250.5 L 208,250.5 L 212,250.5 L 212,254.5 L 212,258.5 L 216,258.5 L 220,258.5 L 220,263 L 220,267.5 L 216,267.5 L 212,267.5 L 212,271 L 212,274.5 L 220,274.5 L 228,274.5 L 228,279 L 228,283.5 L 224,283.5 L 220,283.5 L 220,287 L 220,290.5 L 224,290.5 L 228,290.5 L 228,294 L 228,297.5 L 231.5,297.5 L 235,297.5 L 235,290 L 235,282.5 L 239.5,282.5 L 244,282.5 L 244,286.5 L 244,290.5 L 247.5,290.5 L 251,290.5 L 251,286.5 L 251,282.5 L 254.5,282.5 L 258,282.5 L 258,279 L 258,275.5 L 250.5,275.5 L 243,275.5 L 243,271 L 243,266.5 L 247,266.5 L 251,266.5 L 251,262.5 L 251,258.5 L 255,258.5 L 259,258.5 L 259,262.5 L 259,266.5 L 262.5,266.5 L 266,266.5 L 266,258.5 L 266,250.5 L 270.5,250.5 L 275,250.5 L 275,254.5 L 275,258.5 L 278.5,258.5 L 282,258.5 L 282,254.5 L 282,250.5 L 286,250.5 L 290,250.5 L 290,247.5 L 290,244.5 L 282,244.5 L 274,244.5 L 274,240 L 274,235.5 L 278,235.5 L 282,235.5 L 282,232 L 282,228.5 L 278,228.5 L 274,228.5 L 274,224.5 L 274,220.5 L 270.5,220.5 L 267,220.5 L 267,228.5 L 267,236.5 L 262.5,236.5 L 258,236.5 L 258,232.5 L 258,228.5 L 250.5,228.5 L 243,228.5 L 243,224.5 L 243,220.5 L 239.5,220.5 L 236,220.5 L 236,228.5 L 236,236.5 L 231.5,236.5 L 227,236.5 L 227,232.5 L 227,228.5 L 223,228.5 L 219,228.5 L 219,224 L 219,219.5 L 223,219.5 L 227,219.5 L 227,216 L 227,212.5 L 219,212.5 L 211,212.5 L 211,208.5 L 211,204.5 L 215,204.5 L 219,204.5 L 219,200.5 L 219,196.5 L 223.5,196.5 L 228,196.5 L 228,200.5 L 228,204.5 L 231.5,204.5 L 235,204.5 L 235,196.5 L 235,188.5 L 239.5,188.5 L 244,188.5 L 244,192.5 L 244,196.5 L 247.5,196.5 L 251,196.5 L 251,192.5 L 251,188.5 L 254.5,188.5 L 258,188.5 L 258,185 L 258,181.5 L 250.5,181.5 L 243,181.5 L 243,177 L 243,172.5 L 247,172.5 L 251,172.5 L 251,165 L 251,157.5 L 254.5,157.5 L 258,157.5 L 258,154 L 258,150.5 L 250.5,150.5 L 243,150.5 L 243,146 L 243,141.5 L 247,141.5 L 251,141.5 L 251,137.5 L 251,133.5 L 255,133.5 L 259,133.5 L 259,137.5 L 259,141.5 L 262.5,141.5 L 266,141.5 L 266,133.5 L 266,125.5 L 270.5,125.5 L 275,125.5 L 275,129.5 L 275,133.5 L 278.5,133.5 L 282,133.5 L 282,129.5 L 282,125.5 L 286,125.5 L 290,125.5 L 290,122.5 L 290,119.5 L 282,119.5 L 274,119.5 L 274,115 L 274,110.5 L 278,110.5 L 282,110.5 L 282,107 L 282,103.5 L 278,103.5 L 274,103.5 L 274,99.5 L 274,95.5 L 270.5,95.5 L 267,95.5 L 267,103.5 L 267,111.5 L 262.5,111.5 L 258,111.5 L 258,107.5 L 258,103.5 L 250.5,103.5 L 243,103.5 L 243,99.5 L 243,95.5 L 239.5,95.5 L 236,95.5 L 236,103.5 L 236,111.5 L 231.5,111.5 L 227,111.5 L 227,107.5 L 227,103.5 L 223,103.5 L 219,103.5 L 219,99 L 219,94.5 L 223,94.5 L 227,94.5 L 227,91 L 227,87.5 L 219,87.5 L 211,87.5 L 211,83.5 L 211,79.5 L 215,79.5 L 219,79.5 L 219,75.5 L 219,71.5 L 223.5,71.5 L 228,71.5 L 228,75.5 L 228,79.5 L 231.5,79.5 L 235,79.5 L 235,71.5 L 235,63.5 L 239.5,63.5 L 244,63.5 L 244,67.5 L 244,71.5 L 247.5,71.5 L 251,71.5 L 251,67.5 L 251,63.5 L 254.5,63.5 L 258,63.5 L 258,60 L 258,56.5 L 250.5,56.5 L 243,56.5 L 243,52 L 243,47.5 L 247,47.5 L 251,47.5 L 251,44 L 251,40.5 L 255,40.5 L 259,40.5 L 259,44 L 259,47.5 L 262.5,47.5 L 266,47.5 L 266,40 L 266,32.5 L 270.5,32.5 L 275,32.5 L 275,36.5 L 275,40.5 L 279,40.5 L 283,40.5 L 283,44.5 L 283,48.5 L 279,48.5 L 275,48.5 L 275,52 L 275,55.5 L 283,55.5 L 291,55.5 L 291,60 L 291,64.5 L 287,64.5 L 283,64.5 L 283,68 L 283,71.5 L 287,71.5 L 291,71.5 L 291,75.5 L 291,79.5 L 294,79.5 L 297,79.5 L 297,71.5 L 297,63.5 L 301.5,63.5 L 306,63.5 L 306,67.5 L 306,71.5 L 309.5,71.5 L 313,71.5 L 313,67.5 L 313,63.5 L 317,63.5 L 321,63.5 L 321,60 L 321,56.5 L 313,56.5 L 305,56.5 L 305,52 L 305,47.5 L 309,47.5 L 313,47.5 L 313,40 L 313,32.5 L 317,32.5 L 321,32.5 L 321,29 L 321,25.5 L 313,25.5 L 305,25.5 L 305,21 L 305,16.5 L 309,16.5 L 313,16.5 L 313,12.5 L 313,8.5 L 317.5,8.5 L 322,8.5 L 322,12.5 L 322,16.5 L 325.5,16.5 L 329,16.5 L 329,8.5 L 329,0.5 L 333,0.5 L 337,0.5 L 337,4.5 L 337,8.5 L 341,8.5 L 345,8.5 L 345,13 L 345,17.5 L 341,17.5 L 337,17.5 L 337,21 L 337,24.5 L 345,24.5 L 353,24.5 L 353,29 L 353,33.5 L 349,33.5 L 345,33.5 L 345,37 L 345,40.5 L 349,40.5 L 353,40.5 L 353,44 L 353,47.5 L 356.5,47.5 L 360,47.5 L 360,40 L 360,32.5 L 364.5,32.5 L 369,32.5 L 369,36.5 L 369,40.5 L 373,40.5 L 377,40.5 L 377,44.5 L 377,48.5 L 373,48.5 L 369,48.5 L 369,52 L 369,55.5 L 376.5,55.5 L 384,55.5 L 384,60 L 384,64.5 L 380.5,64.5 L 377,64.5 L 377,68.5 L 377,72.5 L 372.5,72.5 L 368,72.5 L 368,68.5 L 368,64.5 L 364.5,64.5 L 361,64.5 L 361,72.5 L 361,80.5 L 356.5,80.5 L 352,80.5 L 352,76.5 L 352,72.5 L 348.5,72.5 L 345,72.5 L 345,76.5 L 345,80.5 L 341,80.5 L 337,80.5 L 337,83.5 L 337,86.5 L 345,86.5 L 353,86.5 L 353,91 L 353,95.5 L 349,95.5 L 345,95.5 L 345,99 L 345,102.5 L 349,102.5 L 353,102.5 L 353,106.5 L 353,110.5 L 356.5,110.5 L 360,110.5 L 360,102.5 L 360,94.5 L 364.5,94.5 L 369,94.5 L 369,98.5 L 369,102.5 L 376.5,102.5 L 384,102.5 L 384,106.5 L 384,110.5 L 387.5,110.5 L 391,110.5 L 391,102.5 L 391,94.5 L 395.5,94.5 L 400,94.5 L 400,98.5 L 400,102.5 L 404,102.5 L 408,102.5 L 408,107 L 408,111.5 L 404,111.5 L 400,111.5 L 400,115 L 400,118.5 L 408,118.5 L 416,118.5 L 416,122.5 L 416,126.5 L 412,126.5 L 408,126.5 L 408,130.5 L 408,134.5 L 403.5,134.5 L 399,134.5 L 399,130.5 L 399,126.5 L 395.5,126.5 L 392,126.5 L 392,134.5 L 392,142.5 L 387.5,142.5 L 383,142.5 L 383,138.5 L 383,134.5 L 380,134.5 L 377,134.5 L 377,138.5 L 377,142.5 L 373,142.5 L 369,142.5 L 369,146 L 369,149.5 L 376.5,149.5 L 384,149.5 L 384,154 L 384,158.5 L 380.5,158.5 L 377,158.5 L 377,162 L 377,165.5 L 380.5,165.5 L 384,165.5 L 384,169 L 384,172.5 L 387.5,172.5 L 391,172.5 L 391,165 L 391,157.5 L 395.5,157.5 L 400,157.5 L 400,161.5 L 400,165.5 L 404,165.5 L 408,165.5 L 408,169.5 L 408,173.5 L 404,173.5 L 400,173.5 L 400,177 L 400,180.5 L 408,180.5 L 416,180.5 L 416,185 L 416,189.5 L 412,189.5 L 408,189.5 L 408,193 L 408,196.5 L 412,196.5 L 416,196.5 L 416,200.5 L 416,204.5 L 419,204.5 L 422,204.5 L 422,196.5 L 422,188.5 L 426.5,188.5 L 431,188.5 L 431,192.5 L 431,196.5 L 434.5,196.5 L 438,196.5 L 438,192.5 L 438,188.5 L 442,188.5 L 446,188.5 L 446,185 L 446,181.5 L 438,181.5 L 430,181.5 L 430,177 L 430,172.5 L 434,172.5 L 438,172.5 L 438,165 L 438,157.5 L 442,157.5 L 446,157.5 L 446,154 L 446,150.5 L 438,150.5 L 430,150.5 L 430,146 L 430,141.5 L 434,141.5 L 438,141.5 L 438,137.5 L 438,133.5 L 442.5,133.5 L 447,133.5 L 447,137.5 L 447,141.5 L 450.5,141.5 L 454,141.5 L 454,133.5 L 454,125.5 L 458,125.5 L 462,125.5 L 462,129.5 L 462,133.5 L 466,133.5 L 470,133.5 L 470,138 L 470,142.5 L 466,142.5 L 462,142.5 L 462,146 L 462,149.5 L 470,149.5 L 478,149.5 L 478,154 L 478,158.5 L 474,158.5 L 470,158.5 L 470,162 L 470,165.5 L 474,165.5 L 478,165.5 L 478,169 L 478,172.5 L 481.5,172.5 L 485,172.5 L 485,165 L 485,157.5 L 489.5,157.5 L 494,157.5 L 494,161.43963 L 494,165.37927 L 497.75,165.77153 L 501.5,166.16379 L 497.25,166.3319 L 493,166.5 L 493,162.5 L 493,158.5 L 489.5,158.5 L 486,158.5 L 486,166 L 486,173.5 L 481.5,173.5 L 477,173.5 L 477,170 L 477,166.5 L 473,166.5 L 469,166.5 L 469,162 L 469,157.5 L 473,157.5 L 477,157.5 L 477,154 L 477,150.5 L 469,150.5 L 461,150.5 L 461,146 L 461,141.5 L 465,141.5 L 469,141.5 L 469,138 L 469,134.5 L 465,134.5 L 461,134.5 L 461,130.5 L 461,126.5 L 458,126.5 L 455,126.5 L 455,134.5 L 455,142.5 L 450.5,142.5 L 446,142.5 L 446,138.5 L 446,134.5 L 442.5,134.5 L 439,134.5 L 439,138.5 L 439,142.5 L 435,142.5 L 431,142.5 L 431,146 L 431,149.5 L 439,149.5 L 447,149.5 L 447,154 L 447,158.5 L 443,158.5 L 439,158.5 L 439,166 L 439,173.5 L 435,173.5 L 431,173.5 L 431,177 L 431,180.5 L 439,180.5 L 447,180.5 L 447,185 L 447,189.5 L 443,189.5 L 439,189.5 L 439,193.5 L 439,197.5 L 434.5,197.5 L 430,197.5 L 430,193.5 L 430,189.5 L 426.5,189.5 L 423,189.5 L 423,197.5 L 423,205.5 L 419,205.5 L 415,205.5 L 415,201.5 L 415,197.5 L 411,197.5 L 407,197.5 L 407,193 L 407,188.5 L 411,188.5 L 415,188.5 L 415,185 L 415,181.5 L 407,181.5 L 399,181.5 L 399,177 L 399,172.5 L 403,172.5 L 407,172.5 L 407,169.5 L 407,166.5 L 403,166.5 L 399,166.5 L 399,162.5 L 399,158.5 L 395.5,158.5 L 392,158.5 L 392,166 L 392,173.5 L 387.5,173.5 L 383,173.5 L 383,170 L 383,166.5 L 379.5,166.5 L 376,166.5 L 376,162 L 376,157.5 L 379.5,157.5 L 383,157.5 L 383,154 L 383,150.5 L 375.5,150.5 L 368,150.5 L 368,146 L 368,141.5 L 372,141.5 L 376,141.5 L 376,137.5 L 376,133.5 L 380,133.5 L 384,133.5 L 384,137.5 L 384,141.5 L 387.5,141.5 L 391,141.5 L 391,133.5 L 391,125.5 L 395.5,125.5 L 400,125.5 L 400,129.5 L 400,133.5 L 403.5,133.5 L 407,133.5 L 407,129.5 L 407,125.5 L 411,125.5 L 415,125.5 L 415,122.5 L 415,119.5 L 407,119.5 L 399,119.5 L 399,115 L 399,110.5 L 403,110.5 L 407,110.5 L 407,107 L 407,103.5 L 403,103.5 L 399,103.5 L 399,99.5 L 399,95.5 L 395.5,95.5 L 392,95.5 L 392,103.5 L 392,111.5 L 387.5,111.5 L 383,111.5 L 383,107.5 L 383,103.5 L 375.5,103.5 L 368,103.5 L 368,99.5 L 368,95.5 L 364.5,95.5 L 361,95.5 L 361,103.5 L 361,111.5 L 356.5,111.5 L 352,111.5 L 352,107.5 L 352,103.5 L 348,103.5 L 344,103.5 L 344,99 L 344,94.5 L 348,94.5 L 352,94.5 L 352,91 L 352,87.5 L 344,87.5 L 336,87.5 L 336,83.5 L 336,79.5 L 340,79.5 L 344,79.5 L 344,75.5 L 344,71.5 L 348.5,71.5 L 353,71.5 L 353,75.5 L 353,79.5 L 356.5,79.5 L 360,79.5 L 360,71.5 L 360,63.5 L 364.5,63.5 L 369,63.5 L 369,67.5 L 369,71.5 L 372.5,71.5 L 376,71.5 L 376,67.5 L 376,63.5 L 379.5,63.5 L 383,63.5 L 383,60 L 383,56.5 L 375.5,56.5 L 368,56.5 L 368,52 L 368,47.5 L 372,47.5 L 376,47.5 L 376,44.5 L 376,41.5 L 372,41.5 L 368,41.5 L 368,37.5 L 368,33.5 L 364.5,33.5 L 361,33.5 L 361,41 L 361,48.5 L 356.5,48.5 L 352,48.5 L 352,45 L 352,41.5 L 348,41.5 L 344,41.5 L 344,37 L 344,32.5 L 348,32.5 L 352,32.5 L 352,29 L 352,25.5 L 344,25.5 L 336,25.5 L 336,21 L 336,16.5 L 340,16.5 L 344,16.5 L 344,13 L 344,9.5 L 340,9.5 L 336,9.5 L 336,5.5 L 336,1.5 L 333,1.5 L 330,1.5 L 330,9.5 L 330,17.5 L 325.5,17.5 L 321,17.5 L 321,13.5 L 321,9.5 L 317.5,9.5 L 314,9.5 L 314,13.5 L 314,17.5 L 310,17.5 L 306,17.5 L 306,21 L 306,24.5 L 314,24.5 L 322,24.5 L 322,29 L 322,33.5 L 318,33.5 L 314,33.5 L 314,41 L 314,48.5 L 310,48.5 L 306,48.5 L 306,52 L 306,55.5 L 314,55.5 L 322,55.5 L 322,60 L 322,64.5 L 318,64.5 L 314,64.5 L 314,68.5 L 314,72.5 L 309.5,72.5 L 305,72.5 L 305,68.5 L 305,64.5 L 301.5,64.5 L 298,64.5 L 298,72.5 L 298,80.5 L 294,80.5 L 290,80.5 L 290,76.5 L 290,72.5 L 286,72.5 L 282,72.5 L 282,68 L 282,63.5 L 286,63.5 L 290,63.5 L 290,60 L 290,56.5 L 282,56.5 L 274,56.5 L 274,52 L 274,47.5 L 278,47.5 L 282,47.5 L 282,44.5 L 282,41.5 L 278,41.5 L 274,41.5 L 274,37.5 L 274,33.5 L 270.5,33.5 L 267,33.5 L 267,41 L 267,48.5 L 262.5,48.5 L 258,48.5 L 258,45 L 258,41.5 L 255,41.5 L 252,41.5 L 252,45 L 252,48.5 L 248,48.5 L 244,48.5 L 244,52 L 244,55.5 L 251.5,55.5 L 259,55.5 L 259,60 L 259,64.5 L 255.5,64.5 L 252,64.5 L 252,68.5 L 252,72.5 L 247.5,72.5 L 243,72.5 L 243,68.5 L 243,64.5 L 239.5,64.5 L 236,64.5 L 236,72.5 L 236,80.5 L 231.5,80.5 L 227,80.5 L 227,76.5 L 227,72.5 L 223.5,72.5 L 220,72.5 L 220,76.5 L 220,80.5 L 216,80.5 L 212,80.5 L 212,83.5 L 212,86.5 L 220,86.5 L 228,86.5 L 228,91 L 228,95.5 L 224,95.5 L 220,95.5 L 220,99 L 220,102.5 L 224,102.5 L 228,102.5 L 228,106.5 L 228,110.5 L 231.5,110.5 L 235,110.5 L 235,102.5 L 235,94.5 L 239.5,94.5 L 244,94.5 L 244,98.5 L 244,102.5 L 251.5,102.5 L 259,102.5 L 259,106.5 L 259,110.5 L 262.5,110.5 L 266,110.5 L 266,102.5 L 266,94.5 L 270.5,94.5 L 275,94.5 L 275,98.5 L 275,102.5 L 279,102.5 L 283,102.5 L 283,107 L 283,111.5 L 279,111.5 L 275,111.5 L 275,115 L 275,118.5 L 283,118.5 L 291,118.5 L 291,122.5 L 291,126.5 L 287,126.5 L 283,126.5 L 283,130.5 L 283,134.5 L 278.5,134.5 L 274,134.5 L 274,130.5 L 274,126.5 L 270.5,126.5 L 267,126.5 L 267,134.5 L 267,142.5 L 262.5,142.5 L 258,142.5 L 258,138.5 L 258,134.5 L 255,134.5 L 252,134.5 L 252,138.5 L 252,142.5 L 248,142.5 L 244,142.5 L 244,146 L 244,149.5 L 251.5,149.5 L 259,149.5 L 259,154 L 259,158.5 L 255.5,158.5 L 252,158.5 L 252,166 L 252,173.5 L 248,173.5 L 244,173.5 L 244,177 L 244,180.5 L 251.5,180.5 L 259,180.5 L 259,185 L 259,189.5 L 255.5,189.5 L 252,189.5 L 252,193.5 L 252,197.5 L 247.5,197.5 L 243,197.5 L 243,193.5 L 243,189.5 L 239.5,189.5 L 236,189.5 L 236,197.5 L 236,205.5 L 231.5,205.5 L 227,205.5 L 227,201.5 L 227,197.5 L 223.5,197.5 L 220,197.5 L 220,201.5 L 220,205.5 L 216,205.5 L 212,205.5 L 212,208.5 L 212,211.5 L 220,211.5 L 228,211.5 L 228,216 L 228,220.5 L 224,220.5 L 220,220.5 L 220,224 L 220,227.5 L 224,227.5 L 228,227.5 L 228,231.5 L 228,235.5 L 231.5,235.5 L 235,235.5 L 235,227.5 L 235,219.5 L 239.5,219.5 L 244,219.5 L 244,223.5 L 244,227.5 L 251.5,227.5 L 259,227.5 L 259,231.5 L 259,235.5 L 262.5,235.5 L 266,235.5 L 266,227.5 L 266,219.5 L 270.5,219.5 L 275,219.5 L 275,223.5 L 275,227.5 L 279,227.5 L 283,227.5 L 283,232 L 283,236.5 L 279,236.5 L 275,236.5 L 275,240 L 275,243.5 L 283,243.5 L 291,243.5 L 291,247.5 L 291,251.5 L 287,251.5 L 283,251.5 L 283,255.5 L 283,259.5 L 278.5,259.5 L 274,259.5 L 274,255.5 L 274,251.5 L 270.5,251.5 L 267,251.5 L 267,259.5 L 267,267.5 L 262.5,267.5 L 258,267.5 L 258,263.5 L 258,259.5 L 255,259.5 L 252,259.5 L 252,263.5 L 252,267.5 L 248,267.5 L 244,267.5 L 244,271 L 244,274.5 L 251.5,274.5 L 259,274.5 L 259,279 L 259,283.5 L 255.5,283.5 L 252,283.5 L 252,287.5 L 252,291.5 L 247.5,291.5 L 243,291.5 L 243,287.5 L 243,283.5 L 239.5,283.5 L 236,283.5 L 236,291 L 236,298.5 L 231.5,298.5 L 227,298.5 L 227,295 L 227,291.5 L 223,291.5 L 219,291.5 L 219,287 L 219,282.5 L 223,282.5 L 227,282.5 L 227,279 L 227,275.5 L 219,275.5 L 211,275.5 L 211,271 L 211,266.5 L 215,266.5 L 219,266.5 L 219,263 L 219,259.5 L 215,259.5 L 211,259.5 L 211,255.5 L 211,251.5 L 208,251.5 L 205,251.5 L 205,259.5 L 205,267.5 L 200.5,267.5 L 196,267.5 L 196,263.5 L 196,259.5 L 192.5,259.5 L 189,259.5 L 189,263.5 L 189,267.5 L 185,267.5 L 181,267.5 L 181,271 L 181,274.5 L 189,274.5 L 197,274.5 L 197,279 L 197,283.5 L 193,283.5 L 189,283.5 L 189,291 L 189,298.5 L 185,298.5 L 181,298.5 L 181,302 L 181,305.5 L 189,305.5 L 197,305.5 L 197,310 L 197,314.5 L 193,314.5 L 189,314.5 L 189,318.5 L 189,322.5 L 184.5,322.5 L 180,322.5 L 180,318.5 L 180,314.5 L 176.5,314.5 L 173,314.5 L 173,322.5 L 173,330.5 L 169,330.5 L 165,330.5 L 165,326.5 z"
     id="path5907" />
</svg>
